<svg width="60" height="60" viewBox="0 0 60 60" fill="none" xmlns="http://www.w3.org/2000/svg">
<path d="M30.4515 6.24023C32.2573 6.24023 33.6761 8.109 33.6761 9.57731C33.6761 11.1791 32.5152 12.3805 31.0964 12.9144C31.8703 13.9823 33.6761 14.7832 35.6109 15.9845C39.9964 18.5207 43.608 21.3238 43.608 26.1292C43.608 30.4007 42.1891 32.136 40.6413 33.6043C39.9964 34.2717 40.3833 38.4097 40.3833 41.6133C40.3833 43.3486 37.1587 44.2829 33.5471 44.6834C33.9341 45.4843 34.708 46.1517 36.2558 46.1517C38.0616 46.1517 41.2862 46.0182 44.5109 46.0182C49.9282 46.0182 52.7659 49.0883 52.7659 49.0883L49.7993 53.7602C49.7993 53.7602 46.4456 50.9571 38.3195 50.9571C33.8051 50.9571 30.5804 48.8214 30.0645 47.0861C29.6775 48.8214 27.0979 50.9571 21.9384 50.9571C14.5863 50.9571 10.2008 53.7602 10.2008 53.7602L7.23413 49.0883C7.23413 49.0883 10.0718 46.0182 15.1022 46.0182C18.8428 46.0182 21.9384 46.1517 23.8732 46.1517C25.421 46.1517 26.195 45.3508 26.5819 44.6834C22.8413 44.2829 19.7457 43.3486 19.7457 41.6133C19.7457 38.9436 20.1326 34.5387 19.3587 33.7378C18.1979 32.5364 16.3921 30.8011 16.3921 26.2627C16.3921 20.256 21.6805 17.7198 25.0341 15.5841C26.4529 14.7832 28.0007 13.9823 28.7746 13.0479C27.4848 12.5139 26.4529 11.3126 26.4529 9.97776C26.7109 8.24248 28.5167 6.24023 30.4515 6.24023ZM30.0645 34.9391C33.0312 34.9391 35.7398 35.3396 38.3195 36.5409V34.8056C35.9978 33.6043 33.0312 32.9369 30.0645 32.9369C26.9689 32.9369 23.8732 33.7378 21.6805 34.9391V36.5409C23.4863 35.6065 26.8399 34.9391 30.0645 34.9391ZM30.0645 39.4775C32.5152 39.4775 36.5138 39.878 38.3195 40.6789V39.0771C36.3848 38.0092 33.0312 37.4753 30.0645 37.4753C26.9689 37.4753 23.4862 38.1427 21.5515 39.2106V40.8124C23.0993 40.0115 26.8399 39.4775 30.0645 39.4775ZM31.4833 29.4663V25.9957H34.966V23.3261H31.4833V19.8555H28.7746V23.3261H25.421V25.9957H28.7746V29.4663H31.4833Z" fill="#181818"/>
<path fill-rule="evenodd" clip-rule="evenodd" d="M19.8683 42.1882C19.7878 42.007 19.7456 41.8154 19.7456 41.6128C19.7456 40.9687 19.7682 40.2235 19.7915 39.4524C19.8648 37.0273 19.9459 34.3449 19.3587 33.7373C19.3269 33.7044 19.2946 33.671 19.2618 33.6372C18.1002 32.4387 16.392 30.6763 16.392 26.2622C16.392 20.8842 20.6313 18.2883 23.9256 16.2709C24.3108 16.0351 24.683 15.8071 25.034 15.5836C25.1943 15.4931 25.3562 15.4026 25.5185 15.312C26.1577 14.9548 26.8023 14.5947 27.3726 14.2198C27.9392 13.8474 28.4325 13.4604 28.7746 13.0474C28.2461 12.8286 27.7608 12.4977 27.3722 12.0915C26.8124 11.5065 26.4529 10.7651 26.4529 9.97729C26.7109 8.242 28.5167 6.23976 30.4514 6.23976C32.2572 6.23976 33.6761 8.10852 33.6761 9.57684C33.6761 10.5722 33.2278 11.4129 32.5479 12.035C32.1337 12.414 31.6335 12.7118 31.0964 12.9139C31.4099 13.3465 31.8927 13.7352 32.4848 14.1245C32.9522 14.4319 33.4878 14.7396 34.062 15.0695C34.556 15.3533 35.0785 15.6535 35.6109 15.984C39.9964 18.5202 43.6079 21.3234 43.6079 26.1287C43.6079 30.4002 42.1891 32.1355 40.6413 33.6038C40.1764 34.0849 40.2477 36.369 40.3237 38.8066C40.3531 39.7509 40.3833 40.7183 40.3833 41.6128C40.3833 41.9678 40.2483 42.2893 40.0026 42.5796C39.865 42.7423 39.6925 42.8951 39.4896 43.0386C38.629 43.647 37.22 44.0862 35.589 44.3868C34.9369 44.507 34.2493 44.605 33.5471 44.6829C33.8713 45.354 34.4673 45.9314 35.5627 46.1009C35.7745 46.1337 36.005 46.1512 36.2558 46.1512C37.0287 46.1512 38.0616 46.1268 39.2431 46.0988C40.822 46.0614 42.6664 46.0177 44.5108 46.0177C49.9282 46.0177 52.7659 49.0878 52.7659 49.0878L49.7992 53.7598C49.7992 53.7598 49.4758 53.4894 48.7865 53.1167C47.2561 52.2891 43.9221 50.9566 38.3195 50.9566C35.1597 50.9566 32.6317 49.9103 31.2222 48.6873C30.618 48.163 30.2193 47.6063 30.0645 47.0856C29.9426 47.6319 29.6035 48.2179 29.035 48.7644C27.7976 49.9539 25.4736 50.9566 21.9384 50.9566C14.6714 50.9566 10.3028 53.6952 10.2025 53.7586C10.2013 53.7594 10.2007 53.7598 10.2007 53.7598L7.2341 49.0878C7.2341 49.0878 10.0717 46.0177 15.1022 46.0177C17.2779 46.0177 19.2355 46.0629 20.8733 46.1007C22.0513 46.1279 23.0638 46.1512 23.8732 46.1512C24.1053 46.1512 24.3199 46.1332 24.5185 46.1004C25.6444 45.9141 26.253 45.2503 26.5819 44.6829C25.8489 44.6044 25.1406 44.5055 24.4756 44.384C22.9113 44.0982 21.5861 43.6879 20.7399 43.1269C20.3244 42.8514 20.0244 42.5395 19.8683 42.1882ZM23.6986 40.1167C25.5081 39.7171 27.9023 39.4771 30.0645 39.4771C31.9098 39.4771 34.6328 39.7041 36.6364 40.1582C36.6393 40.1589 36.6423 40.1596 36.6452 40.1602C36.9811 40.2366 37.2967 40.3193 37.5845 40.4084C37.8565 40.4927 38.1037 40.5827 38.3195 40.6784V39.0766C37.9651 38.881 37.563 38.7033 37.1245 38.5435C35.169 37.831 32.4877 37.4748 30.0645 37.4748C27.7392 37.4748 25.1956 37.8514 23.2537 38.4914C22.6103 38.7034 22.0329 38.9443 21.5514 39.2101V40.8119C21.7549 40.7066 21.9962 40.606 22.2692 40.5106C22.5579 40.4096 22.8821 40.3146 23.2345 40.226C23.3843 40.1884 23.5392 40.152 23.6986 40.1167ZM37.1882 34.2824C35.0721 33.4118 32.5683 32.9364 30.0645 32.9364C27.849 32.9364 25.6335 33.3466 23.7489 34.0203C23.0003 34.2879 22.3039 34.5971 21.6804 34.9386V36.5404C21.8939 36.43 22.129 36.3232 22.383 36.2209C22.6847 36.0993 23.0131 35.9839 23.3635 35.8758C23.6433 35.7895 23.937 35.7079 24.2424 35.6315C25.9557 35.2028 28.0356 34.9386 30.0645 34.9386C32.3801 34.9386 34.5386 35.1826 36.6013 35.861C36.613 35.8649 36.6247 35.8688 36.6364 35.8726C36.9553 35.9783 37.272 36.0945 37.5865 36.2217C37.8321 36.3211 38.0764 36.4272 38.3195 36.5404V34.8052C37.9573 34.6177 37.5794 34.4433 37.1882 34.2824ZM19.6074 44.3887C18.2621 44.3601 16.7447 44.3346 15.1022 44.3346C12.2334 44.3346 9.98002 45.212 8.44434 46.0928C7.67745 46.5326 7.0853 46.9755 6.67718 47.3163C6.47276 47.487 6.31333 47.6332 6.20004 47.7419C6.14336 47.7964 6.09811 47.8416 6.06443 47.876C6.04759 47.8932 6.03363 47.9077 6.02257 47.9193L6.00815 47.9346L6.00257 47.9406L6.00019 47.9431L5.9991 47.9443C5.99859 47.9449 5.99808 47.9454 7.2341 49.0878L5.99808 47.9454L5.1189 48.8966L9.68482 56.0871L11.1019 55.1813L11.1029 55.1807L11.1038 55.1801L11.1053 55.1791L11.1234 55.1681C11.1453 55.1549 11.1836 55.1321 11.2379 55.101C11.3466 55.039 11.5192 54.9443 11.7531 54.8274C12.221 54.5937 12.9323 54.2724 13.8653 53.9479C15.731 53.2992 18.4781 52.6397 21.9384 52.6397C24.7427 52.6397 26.9745 52.0599 28.6147 51.1397C29.2002 50.8112 29.7255 50.4289 30.1729 50.0043C30.6932 50.4471 31.2882 50.8366 31.9122 51.1631C33.5981 52.0453 35.8022 52.6397 38.3195 52.6397C42.1844 52.6397 44.8524 53.3055 46.5116 53.9326C47.3431 54.2469 47.9275 54.5538 48.2872 54.768C48.4672 54.8751 48.5914 54.9594 48.6626 55.0101C48.6982 55.0354 48.7205 55.0524 48.7299 55.0597C48.7304 55.0601 48.7309 55.0604 48.7313 55.0607L50.1917 56.2815L54.8811 48.8966L54.0019 47.9454L52.7659 49.0878C54.0019 47.9454 54.0014 47.9448 54.0008 47.9442L53.9971 47.9402L53.9912 47.934L53.9762 47.918C53.9689 47.9104 53.9605 47.9016 53.9509 47.8917C53.9453 47.886 53.9393 47.8799 53.9329 47.8734C53.8983 47.8382 53.8519 47.7922 53.794 47.7369C53.678 47.6266 53.5152 47.4791 53.3057 47.3071C52.8872 46.9637 52.2793 46.5199 51.485 46.0802C49.8916 45.1982 47.5498 44.3346 44.5108 44.3346C43.1327 44.3346 41.7575 44.3587 40.4986 44.3863C40.6669 44.2651 40.8273 44.1345 40.977 43.9935C41.5755 43.4298 42.0664 42.6297 42.0664 41.6128C42.0664 40.7828 42.0414 39.8997 42.0152 39.0518C42.0121 38.952 42.009 38.8527 42.006 38.7541C41.9826 38.0047 41.9604 37.2912 41.9535 36.6394C41.9455 35.8932 41.9589 35.2912 42.0033 34.8576C42.0145 34.7475 42.0266 34.6613 42.0377 34.5958C42.802 33.8488 43.6099 32.9321 44.2247 31.641C44.9037 30.2149 45.291 28.4545 45.291 26.1287C45.291 20.2949 40.8287 17.0595 36.4761 14.5401C35.974 14.2289 35.4847 13.9459 35.037 13.6885C34.9916 13.6625 34.9468 13.6367 34.9025 13.6113C34.5458 13.4063 34.2232 13.221 33.9246 13.0409C34.7713 12.1729 35.3592 11.0068 35.3592 9.57684C35.3592 8.34817 34.7931 7.12982 33.997 6.23732C33.1873 5.32952 31.9545 4.55664 30.4514 4.55664C28.9071 4.55664 27.5705 5.34074 26.6399 6.26101C25.7093 7.18126 24.9808 8.43365 24.7881 9.72979L24.7698 9.85286V9.97729C24.7698 11.1965 25.27 12.2618 26.0069 13.0913C25.6058 13.3349 25.179 13.5734 24.7239 13.8278C24.5554 13.922 24.3831 14.0183 24.2067 14.1179L24.1677 14.1399L24.1299 14.1639C23.8248 14.3583 23.4856 14.5656 23.1232 14.7871C21.6601 15.6815 19.8174 16.808 18.2971 18.2502C16.316 20.1295 14.7089 22.6804 14.7089 26.2622C14.7089 28.7671 15.2104 30.6066 15.9456 32.0255C16.6142 33.3157 17.4425 34.1795 18.0092 34.7634C18.0295 34.8444 18.0537 34.9683 18.0761 35.1438C18.1349 35.6031 18.1593 36.2269 18.1593 36.9743C18.1593 37.7123 18.136 38.5131 18.1117 39.3178L18.1088 39.4136C18.0858 40.1744 18.0625 40.9425 18.0625 41.6128C18.0625 42.6066 18.5241 43.4029 19.1165 43.977C19.2695 44.1253 19.4342 44.2622 19.6074 44.3887ZM17.979 34.6651C17.9791 34.6648 17.9812 34.6695 17.985 34.68C17.9807 34.6707 17.9789 34.6655 17.979 34.6651ZM42.0747 34.4347C42.0749 34.4351 42.0727 34.4426 42.0676 34.4558C42.0718 34.4409 42.0744 34.4343 42.0747 34.4347ZM31.4833 29.4658H28.7746V25.9953H25.421V23.3256H28.7746V19.855H31.4833V23.3256H34.9659V25.9953H31.4833V29.4658Z" fill="#BDA581"/>
</svg>
