<svg width="60" height="60" viewBox="0 0 60 60" fill="none" xmlns="http://www.w3.org/2000/svg">
<path d="M17.3986 16.3923C17.27 15.7253 16.8842 14.3911 16.8842 12.1231C16.8842 10.3888 16.8842 9.58831 17.0128 8.38761L17.1414 8.12078C17.1414 8.12078 19.4559 7.98737 21.2561 9.58831C22.7992 10.789 23.6993 12.1231 24.085 12.6568H24.2136C24.728 9.4549 27.2997 7.32031 27.2997 7.32031H27.814C27.814 7.32031 29.8714 9.4549 30.5143 12.2565C41.9585 13.8575 51.7311 26.5316 51.7311 43.0747C51.7311 48.9448 51.2167 52.6803 51.2167 52.6803H20.7418C20.7418 52.6803 20.6132 50.4123 21.2561 48.2777C23.3135 41.874 29.6142 38.6721 29.6142 32.6685C29.6142 32.1349 29.3571 32.0015 29.0999 32.0015C28.8427 33.6024 23.6993 34.8031 21.3847 36.8043C19.0702 38.8055 18.2987 42.6744 16.1127 42.6744C15.3412 42.6744 14.4411 42.0074 14.4411 41.2069C13.9267 41.2069 13.4124 41.3403 12.7694 41.3403C10.1977 41.3403 8.26892 38.5387 8.26892 34.8031C8.26892 32.6685 10.1977 29.6001 12.898 25.0641C13.7981 23.5965 13.541 22.129 14.4411 19.7276C15.3412 18.7937 16.2413 17.593 17.3986 16.3923ZM11.6122 36.0038C11.6122 36.8043 11.9979 37.2045 12.3837 37.2045C12.898 37.2045 13.4124 36.5375 13.4124 36.0038C13.4124 35.4702 14.3125 35.3368 14.3125 34.8031C14.3125 34.2695 14.3125 33.3356 13.2838 33.3356C12.2551 33.3356 11.6122 35.07 11.6122 36.0038ZM14.9554 38.4053C14.9554 39.0723 15.2126 39.3391 15.9841 39.3391C16.627 39.3391 17.0128 38.4053 17.0128 37.8716C17.0128 37.338 16.627 37.0711 16.2413 37.0711C15.8555 37.0711 14.9554 37.7382 14.9554 38.4053ZM18.0415 24.2636C18.4272 24.2636 18.9416 23.8634 18.9416 23.5965C19.0702 22.9295 19.5845 23.5965 20.7418 22.9295C21.8991 22.3958 21.3847 21.462 21.3847 20.9283C21.3847 20.1278 22.2848 20.3947 22.2848 19.861C22.2848 19.5942 22.2848 19.0605 21.5133 19.0605C19.3273 19.0605 17.27 20.9283 17.27 23.3297C17.3985 23.8634 17.7843 24.2636 18.0415 24.2636ZM21.7705 17.8598C21.7705 17.8598 22.7992 17.0594 24.728 16.3923C24.5994 16.1255 24.4708 15.5918 24.3422 15.0582C22.2848 15.8587 20.999 16.926 20.999 16.7925L21.7705 17.8598ZM31.1573 25.4643C31.0287 27.1987 30.3857 28.7996 30.3857 28.7996L31.9288 29.0664C31.9288 29.0664 32.9575 27.9991 32.9575 26.1314C32.9575 24.2636 32.186 23.1963 32.186 23.1963H31.0287C31.1573 23.1963 31.2859 24.2636 31.1573 25.4643ZM48.2592 50.4123C48.645 48.678 48.9022 46.41 48.9022 43.3415C48.9022 26.5316 39.1296 15.5918 30.9001 14.2577C30.9001 15.0582 30.7715 15.5918 30.6429 15.8587C39.9011 17.1928 46.2019 31.4678 46.2019 42.541C46.2019 45.4761 45.9447 48.4111 45.5589 50.4123H48.2592Z" fill="#181818"/>
<path fill-rule="evenodd" clip-rule="evenodd" d="M20.772 51.0602C20.8294 50.2579 20.9621 49.2538 21.2561 48.2776C22.1677 45.4405 23.9121 43.2318 25.5725 41.1296C27.3398 38.8919 29.0119 36.7749 29.483 34.1487C29.5683 33.6732 29.6143 33.181 29.6143 32.6684C29.6143 32.2726 29.4728 32.097 29.2947 32.0327C29.2327 32.0103 29.1663 32.0014 29.0999 32.0014C29.063 32.2308 28.9259 32.4519 28.7111 32.6684C28.5632 32.8175 28.3786 32.9643 28.1646 33.11C28.1024 33.1523 28.0377 33.1946 27.9707 33.2368C27.2998 33.6596 26.3981 34.0761 25.4482 34.5149C23.9853 35.1907 22.4084 35.9191 21.3847 36.8042C20.4217 37.6368 19.7258 38.7928 19.084 39.8589C18.1833 41.3551 17.3891 42.6743 16.1127 42.6743C15.3412 42.6743 14.4411 42.0073 14.4411 41.2068C14.1982 41.2068 13.9554 41.2365 13.699 41.2679C13.4279 41.3011 13.1416 41.3362 12.8243 41.3399C12.8061 41.3401 12.7878 41.3402 12.7694 41.3402C10.1977 41.3402 8.26893 38.5385 8.26893 34.803C8.26893 32.8196 9.93422 30.0299 12.3364 26.0057C12.5195 25.6991 12.7068 25.3852 12.898 25.064C13.3848 24.2703 13.5331 23.4767 13.709 22.5354C13.8584 21.7361 14.0277 20.8303 14.4411 19.7275C14.8629 19.2898 15.2847 18.7936 15.733 18.2662C16.2413 17.6682 16.7836 17.0302 17.3986 16.3922C17.3782 16.2866 17.3514 16.1643 17.3207 16.0242C17.1575 15.2794 16.8842 14.032 16.8842 12.123C16.8842 10.3887 16.8842 9.58819 17.0128 8.38749L17.1414 8.12067C17.1414 8.12067 19.4559 7.98725 21.2561 9.5882C21.924 10.1079 22.4714 10.6526 22.9088 11.1465C23.4084 11.7107 23.7645 12.2088 23.9926 12.5278C24.0196 12.5655 24.0448 12.6008 24.0682 12.6333C24.0739 12.6413 24.0795 12.649 24.085 12.6567H24.2136C24.2193 12.6213 24.2253 12.586 24.2314 12.5508C24.3401 11.9337 24.5243 11.3572 24.7503 10.8292C25.6753 8.66845 27.2997 7.3202 27.2997 7.3202H27.814C27.814 7.3202 29.8714 9.45478 30.5144 12.2564C41.9585 13.8574 51.7311 26.5315 51.7311 43.0745C51.7311 48.9447 51.2167 52.6802 51.2167 52.6802H20.7418C20.7418 52.6802 20.7182 52.2637 20.7418 51.6196C20.7481 51.4481 20.7577 51.2604 20.772 51.0602ZM20.7418 52.6802L19.1244 52.7719L19.211 54.3002H52.629L52.8216 52.9012L51.2167 52.6802C52.8216 52.9012 52.8216 52.9014 52.8216 52.9012L52.8223 52.8958L52.8238 52.8849L52.8288 52.847C52.8331 52.8145 52.8391 52.7678 52.8466 52.7072C52.8616 52.5861 52.8826 52.4095 52.9076 52.1805C52.9575 51.7226 53.0234 51.0551 53.0891 50.2032C53.2205 48.4997 53.3511 46.0564 53.3511 43.0745C53.3511 26.4946 43.8016 13.1683 31.786 10.8272C31.3694 9.62318 30.7788 8.59377 30.2672 7.83332C29.934 7.3382 29.6225 6.93977 29.3909 6.66136C29.2747 6.5218 29.1779 6.41141 29.1073 6.33307C29.072 6.29388 29.0432 6.26262 29.0218 6.23967L28.9953 6.21149L28.9864 6.20213L28.983 6.19865L28.9816 6.19721C28.9813 6.19691 28.9804 6.19597 27.814 7.3202L28.9804 6.19597L28.5026 5.7002H26.715L26.265 6.07365L27.2997 7.3202C26.265 6.07365 26.2654 6.07331 26.265 6.07365L26.2634 6.07504L26.2614 6.07664L26.2569 6.08044L26.245 6.09047L26.2103 6.12018C26.1826 6.14423 26.1455 6.1768 26.1005 6.21763C26.0104 6.2992 25.8878 6.4142 25.742 6.56057C25.4514 6.85234 25.0636 7.27415 24.6581 7.80971C24.3048 8.2762 23.9266 8.84412 23.5872 9.50088C23.2116 9.11983 22.7803 8.72475 22.2915 8.34133C21.1267 7.32175 19.8261 6.86983 18.8528 6.66787C18.3558 6.56473 17.9262 6.52288 17.6137 6.50694C17.4568 6.49893 17.3275 6.49736 17.2317 6.49811C17.1838 6.49848 17.144 6.49944 17.1132 6.50048L17.0738 6.50204L17.0592 6.50275L17.0532 6.50306L17.0506 6.50321L17.0494 6.50328C17.0488 6.50332 17.0482 6.50335 17.1414 8.12067L17.0482 6.50335L16.0961 6.55823L15.4318 7.93648L15.402 8.21499C15.2642 9.50195 15.2642 10.3811 15.2642 12.0746V12.123C15.2642 13.8385 15.4731 15.0998 15.6381 15.9053C15.2588 16.3248 14.9105 16.7327 14.5893 17.1104C14.5628 17.1415 14.5366 17.1724 14.5106 17.203C14.0506 17.744 13.66 18.2035 13.2747 18.6033L13.0419 18.8448L12.9241 19.1589C12.4594 20.3988 12.267 21.431 12.1177 22.2317C12.1041 22.3048 12.0908 22.3759 12.0777 22.4451C11.9184 23.2879 11.7979 23.7592 11.5171 24.217L11.5115 24.2261L11.506 24.2353C11.3175 24.552 11.1317 24.8632 10.9492 25.1688C9.84297 27.0218 8.85867 28.6705 8.1289 30.0957C7.29993 31.7146 6.64893 33.3168 6.64893 34.803C6.64893 36.9326 7.19642 38.9037 8.22043 40.3911C9.25331 41.8914 10.8334 42.9602 12.7694 42.9602C13.0044 42.9602 13.2232 42.9467 13.4184 42.929C13.5834 43.147 13.7682 43.3339 13.9529 43.4873C14.5201 43.958 15.2944 44.2943 16.1127 44.2943C17.1984 44.2943 18.0352 43.7944 18.6473 43.2146C19.2275 42.6649 19.694 41.961 20.077 41.3439C20.2307 41.0962 20.3762 40.8558 20.5167 40.6236C21.1562 39.567 21.694 38.6783 22.4443 38.0297C23.2816 37.3057 24.6275 36.6817 26.1381 35.9814C26.3228 35.8957 26.5101 35.8089 26.6992 35.7206C26.9454 35.6056 27.1964 35.487 27.4454 35.3649C26.9147 36.6603 26.0302 37.9139 24.9289 39.3272C24.728 39.5849 24.5197 39.8481 24.3065 40.1173C22.6584 42.1992 20.7213 44.6462 19.7138 47.7821L19.7093 47.7962L19.705 47.8104C19.3336 49.0433 19.1929 50.2815 19.1406 51.1858C19.1141 51.6439 19.1095 52.0302 19.1118 52.3057C19.1129 52.4437 19.1158 52.5547 19.1185 52.6339C19.1198 52.6734 19.1211 52.7051 19.1222 52.7283L19.1236 52.7567L19.1241 52.766L19.1243 52.7707L19.1244 52.7719C19.1244 52.7722 19.1244 52.7719 20.7418 52.6802ZM20.5742 19.1747C18.7727 19.6147 17.27 21.2773 17.27 23.3296C17.2842 23.3887 17.3016 23.4461 17.3216 23.5015C17.3225 23.504 17.3234 23.5064 17.3243 23.5089C17.3352 23.5387 17.3468 23.5679 17.3592 23.5964C17.5298 23.9912 17.8294 24.2635 18.0415 24.2635C18.4272 24.2635 18.9416 23.8633 18.9416 23.5964C19.0059 23.2629 19.1666 23.2629 19.4559 23.2629C19.7452 23.2629 20.1632 23.2629 20.7418 22.9294C21.6483 22.5113 21.5291 21.8477 21.4349 21.3233C21.4089 21.1782 21.3847 21.0438 21.3847 20.9282C21.3847 20.8319 21.3978 20.751 21.4207 20.6823C21.4224 20.6772 21.4241 20.6722 21.426 20.6672C21.448 20.6069 21.4779 20.5562 21.5133 20.513C21.6153 20.3884 21.7635 20.3248 21.9027 20.2649C22.103 20.1789 22.2848 20.1008 22.2848 19.8609C22.2848 19.7719 22.2848 19.6532 22.2562 19.5345C22.199 19.2974 22.0274 19.0604 21.5133 19.0604C21.3125 19.0604 21.1128 19.0762 20.9156 19.1067C20.8438 19.1178 20.7723 19.1309 20.7012 19.1458C20.6587 19.1548 20.6164 19.1644 20.5742 19.1747ZM19.7993 21.3643C19.7025 21.4506 19.6113 21.5438 19.5268 21.643C19.6336 21.6426 19.711 21.6365 19.8347 21.5778C19.8244 21.52 19.8124 21.4509 19.803 21.389C19.8018 21.3811 19.8005 21.3728 19.7993 21.3643ZM22.2538 17.5367C22.4927 17.3904 22.8187 17.2059 23.2284 17.0082C23.6435 16.8079 24.1446 16.594 24.728 16.3922C24.6681 16.2679 24.6082 16.0857 24.5483 15.8726C24.4796 15.6282 24.4109 15.3432 24.3422 15.0581C24.3199 15.0668 24.2977 15.0755 24.2756 15.0842C23.7411 15.2953 23.2599 15.5237 22.8413 15.7429C22.6887 15.8228 22.5444 15.9015 22.4089 15.9776C22.4062 15.9792 22.4034 15.9807 22.4007 15.9823C21.9926 16.212 21.6645 16.4187 21.4285 16.5674C21.2445 16.6833 21.1166 16.7639 21.0507 16.7924C21.0297 16.8015 21.0151 16.8053 21.0068 16.8033L21.7705 17.8597C21.7714 17.859 21.8138 17.8261 21.8964 17.7687C21.9772 17.7125 22.0967 17.6328 22.2538 17.5367ZM34.7322 17.3574C41.7072 21.5519 46.2019 33.1884 46.2019 42.5409C46.2019 44.759 46.055 46.9772 45.8167 48.7922C45.7397 49.3788 45.6532 49.9234 45.559 50.4122H48.2592C48.645 48.6778 48.9022 46.4098 48.9022 43.3414C48.9022 29.663 42.4315 19.8713 35.5868 15.9791C34.5634 15.3971 33.5317 14.9471 32.5119 14.6356C31.998 14.4786 31.4872 14.3569 30.982 14.2712C30.9547 14.2666 30.9274 14.262 30.9001 14.2576C30.9001 14.258 30.9001 14.2585 30.9001 14.2589C30.9 15.0573 30.7719 15.59 30.6436 15.8572C30.6434 15.8576 30.6432 15.8581 30.6429 15.8585C30.6698 15.8624 30.6967 15.8664 30.7235 15.8705C31.2387 15.9491 31.7446 16.0677 32.2407 16.2236C33.1017 16.4941 33.9332 16.8769 34.7322 17.3574ZM31.1966 24.9749C31.188 25.1337 31.1751 25.2977 31.1573 25.4642C31.1103 26.0973 30.9949 26.7125 30.8672 27.2387C30.645 28.154 30.3858 28.7995 30.3858 28.7995L31.9288 29.0663C31.9288 29.0663 31.9867 29.0063 32.0749 28.8898C32.3588 28.5151 32.9575 27.5561 32.9575 26.1313C32.9575 25.6383 32.9037 25.2011 32.8246 24.8246C32.604 23.7745 32.186 23.1962 32.186 23.1962H31.0287C31.0947 23.1962 31.1608 23.4778 31.192 23.9144C31.2103 24.1703 31.2166 24.4793 31.2039 24.8162C31.202 24.8684 31.1995 24.9214 31.1966 24.9749ZM15.9148 37.7215C15.7167 37.7355 15.5635 37.8073 15.4686 37.8715C15.4575 37.8789 15.4473 37.8863 15.4378 37.8935C15.4216 37.9058 15.4076 37.9175 15.3957 37.9282C15.4092 38.0635 15.4709 38.2451 15.6168 38.4051C15.6344 38.4244 15.6533 38.4434 15.6734 38.462C15.773 38.5538 15.8801 38.6129 15.9841 38.648C16.0746 38.6786 16.1627 38.691 16.2413 38.691C16.3798 38.691 16.4823 38.6686 16.5364 38.6537C16.5535 38.6041 16.5717 38.5304 16.5749 38.4346C16.5736 38.4265 16.5717 38.4166 16.5691 38.4051C16.5485 38.314 16.4828 38.1219 16.2861 37.9382C16.2711 37.9242 16.2561 37.911 16.2413 37.8986C16.2298 37.8891 16.2185 37.8801 16.2072 37.8715C16.1218 37.8063 16.0424 37.7672 15.9841 37.7444C15.956 37.7334 15.9328 37.7263 15.9161 37.7218C15.9157 37.7217 15.9152 37.7216 15.9148 37.7215ZM16.5778 38.4593C16.5776 38.4596 16.5768 38.4545 16.5762 38.4432C16.5777 38.4534 16.578 38.4591 16.5778 38.4593ZM12.3837 37.2044C11.9979 37.2044 11.6122 36.8042 11.6122 36.0037C11.6122 35.0698 12.2551 33.3355 13.2838 33.3355C14.3125 33.3355 14.3125 34.2693 14.3125 34.803C14.3125 35.0698 14.0875 35.2366 13.8624 35.4034C13.6374 35.5701 13.4124 35.7369 13.4124 36.0037C13.4124 36.5374 12.898 37.2044 12.3837 37.2044ZM15.9841 39.339C15.2126 39.339 14.9554 39.0722 14.9554 38.4051C14.9554 37.7381 15.8555 37.071 16.2413 37.071C16.627 37.071 17.0128 37.3378 17.0128 37.8715C17.0128 38.4051 16.627 39.339 15.9841 39.339Z" fill="#BDA581"/>
</svg>
