<svg width="60" height="60" viewBox="0 0 60 60" fill="none" xmlns="http://www.w3.org/2000/svg">
<path d="M26.1801 18.6185C26.4919 18.4626 26.6478 18.1508 26.1801 17.8389C25.0887 16.7475 24.3091 15.3443 24.3091 13.9411C24.3091 10.8227 27.2715 7.86035 30.3898 7.86035C33.3522 7.86035 35.8468 10.8227 35.8468 13.3174C35.8468 15.1884 34.7554 16.7475 33.1963 17.8389C32.8844 18.1508 33.0404 18.3067 33.5081 18.4626C36.4705 19.554 39.277 21.7368 39.277 25.4788C39.277 28.753 37.8737 30.9358 35.6909 32.1832C35.3791 32.3391 35.3791 32.8068 35.6909 32.9627C41.4598 35.9251 44.734 41.694 44.734 47.4629C44.734 49.8016 44.4222 51.2049 43.7985 52.1403H16.2015C15.5778 51.0489 15.266 49.6457 15.266 47.4629C15.266 42.0058 18.2284 35.9251 23.9973 33.1187C24.3091 32.9627 24.465 32.495 23.8413 32.1832C22.1263 30.9358 20.8789 28.9089 20.8789 26.2584C20.8789 22.2046 23.5295 20.0218 26.1801 18.6185Z" fill="#181818"/>
<path fill-rule="evenodd" clip-rule="evenodd" d="M25.2387 19.1541C25.2376 19.1547 25.2365 19.1554 25.2354 19.1561C22.9345 20.5694 20.879 22.6883 20.879 26.2583C20.879 28.5837 21.839 30.429 23.2327 31.6891C23.2331 31.6894 23.2335 31.6898 23.2339 31.6901C23.2632 31.7167 23.2927 31.7429 23.3224 31.7689C23.3329 31.7781 23.3435 31.7872 23.354 31.7964C23.5116 31.9326 23.6742 32.0615 23.8413 32.1831C24.465 32.4949 24.3091 32.9626 23.9973 33.1185C23.7079 33.2593 23.4256 33.4084 23.1503 33.5651C23.1261 33.5789 23.1019 33.5928 23.0777 33.6067C23.076 33.6078 23.0742 33.6088 23.0724 33.6098C17.912 36.5909 15.266 42.3054 15.266 47.4628C15.266 49.6456 15.5778 51.0488 16.2015 52.1402H43.7985C44.4222 51.2047 44.734 49.8015 44.734 47.4628C44.734 42.023 41.8228 36.5833 36.6539 33.4966C36.649 33.4937 36.6442 33.4908 36.6394 33.488C36.539 33.4281 36.4377 33.3691 36.3355 33.3111C36.2982 33.2899 36.2608 33.2688 36.2233 33.2479C36.0483 33.1501 35.8708 33.055 35.6909 32.9626C35.3791 32.8067 35.3791 32.339 35.6909 32.1831C35.8872 32.0709 36.0771 31.9512 36.2603 31.8238C36.2683 31.8182 36.2763 31.8127 36.2843 31.8071C36.3793 31.7405 36.4724 31.6718 36.5637 31.601C36.5664 31.5989 36.5691 31.5968 36.5719 31.5946C38.244 30.2938 39.277 28.288 39.277 25.4787C39.277 22.1641 37.075 20.0728 34.5131 18.8799C34.4911 18.8696 34.4691 18.8594 34.447 18.8493C34.3058 18.7846 34.1636 18.7225 34.0206 18.6631C33.9066 18.6158 33.7921 18.5701 33.6774 18.5261C33.621 18.5045 33.5646 18.4833 33.5081 18.4625C33.0404 18.3066 32.8844 18.1507 33.1963 17.8388C33.4437 17.6656 33.6794 17.4806 33.9008 17.2845C33.9215 17.2661 33.942 17.2477 33.9625 17.2292C34.0312 17.1669 34.0985 17.1035 34.1643 17.039C34.1792 17.0244 34.1941 17.0097 34.2088 16.995C35.2077 15.9983 35.8468 14.7491 35.8468 13.3173C35.8468 10.8226 33.3522 7.86023 30.3898 7.86023C27.2715 7.86023 24.3091 10.8226 24.3091 13.9409C24.3091 15.3442 25.0887 16.7474 26.1801 17.8388C26.6478 18.1507 26.4919 18.4625 26.1801 18.6184C25.9014 18.7659 25.6228 18.922 25.3473 19.088C25.311 19.1099 25.2748 19.1319 25.2387 19.1541ZM35.767 17.6958C36.7803 16.5242 37.4668 15.0494 37.4668 13.3173C37.4668 11.5662 36.6164 9.82146 35.407 8.54093C34.1854 7.24753 32.4194 6.24023 30.3898 6.24023C28.3227 6.24023 26.4086 7.21172 25.0346 8.58571C23.6606 9.95969 22.6891 11.8739 22.6891 13.9409C22.6891 15.428 23.2942 16.8065 24.1311 17.9377C21.6655 19.52 19.259 22.0372 19.259 26.2583C19.259 28.8526 20.2584 30.9837 21.7535 32.5128C16.3604 35.8929 13.646 41.9856 13.646 47.4628C13.646 49.7858 13.9748 51.5087 14.7949 52.944L15.2614 53.7602H44.6655L45.1465 53.0389C46.0448 51.6914 46.354 49.8834 46.354 47.4628C46.354 41.6609 43.3607 35.8944 38.0571 32.4618C39.8431 30.845 40.897 28.5002 40.897 25.4787C40.897 21.5544 38.4351 19.0996 35.767 17.6958Z" fill="#BDA581"/>
</svg>
