<svg width="60" height="60" viewBox="0 0 60 60" fill="none" xmlns="http://www.w3.org/2000/svg">
<path d="M9.51801 13.5861C10.9395 13.5861 12.2317 15.1875 12.2317 16.3885C12.2317 17.3227 11.5856 18.2568 10.8102 18.7906C12.4902 21.9934 14.687 26.6641 17.6591 31.3347C17.9176 31.2013 18.176 31.2013 18.4345 31.0679C18.3052 24.9292 18.176 19.0575 18.176 14.6537C16.8838 14.5203 15.85 13.1858 15.85 12.1182C15.85 10.5168 17.4007 9.04889 18.9514 9.04889C20.3728 9.04889 21.6651 10.6503 21.6651 11.8513C21.6651 12.7854 21.019 13.7196 20.1144 14.2534C21.1482 18.5237 23.4742 25.0627 25.4126 29.5999C25.671 29.5999 26.0587 29.5999 26.3171 29.4665C26.5756 23.7282 28.1263 16.6554 28.6432 12.2517C27.7386 11.8513 26.9633 10.7837 26.9633 9.84958C26.9633 8.2482 28.5139 6.78027 30.0646 6.78027C31.4861 6.78027 32.7783 8.38165 32.7783 9.58269C32.7783 10.7837 31.8738 11.8513 30.84 12.2517C31.3569 16.7889 32.9076 23.9951 33.2952 29.5999C33.5537 29.5999 33.9414 29.5999 34.1998 29.5999C36.2674 24.9292 38.4642 18.5237 39.498 14.2534C38.7227 13.7196 38.2058 12.9189 38.2058 12.1182C38.2058 10.5168 39.7564 9.04889 41.3071 9.04889C42.7286 9.04889 44.0208 10.6503 44.0208 11.8513C44.0208 13.3192 42.7286 14.5203 41.4364 14.7872C41.4364 19.0575 41.3071 25.0627 41.1779 31.2013C41.4364 31.2013 41.6948 31.3348 41.9532 31.4682C44.9254 26.7975 47.1222 21.9934 48.8021 18.7906C48.156 18.2568 47.7683 17.4561 47.7683 16.7889C47.7683 15.1875 49.319 13.7196 50.8697 13.7196C52.2912 13.7196 53.5834 15.321 53.5834 16.522C53.5834 18.1234 51.9035 19.4579 50.482 19.4579H50.3528C48.8021 24.9292 47.7683 34.671 46.7345 38.8079C46.3469 40.4092 43.7624 42.5444 43.7624 43.8789C43.7624 45.6137 44.0208 47.7489 44.0208 49.3503C44.0208 51.7523 37.9473 53.2203 29.8062 53.2203C22.182 53.2203 15.5915 51.7523 15.5915 49.2168C15.5915 47.3485 15.85 45.3468 15.85 43.8789C15.85 42.5444 13.3947 40.8096 13.0071 38.8079C12.1025 34.671 10.8103 24.9292 9.25956 19.4579H9.13034C7.70887 19.4579 6.41663 18.1234 6.41663 16.7889C6.41663 15.1875 7.96732 13.5861 9.51801 13.5861ZM16.4961 41.0765C19.0806 39.6085 24.3788 38.4075 29.8062 38.4075C35.1044 38.4075 40.661 39.6085 43.1163 40.943L43.8916 39.742C41.3071 38.0072 35.8797 36.5392 29.8062 36.5392C23.6034 36.5392 18.4345 38.1406 15.7208 39.742L16.4961 41.0765ZM17.5299 44.2792C19.5975 43.0782 24.8957 42.0106 29.677 42.0106C34.4583 42.0106 39.6272 43.0782 41.824 44.2792V42.6779C39.3688 41.3434 35.3628 40.2758 29.677 40.2758C23.9911 40.2758 19.9852 41.3434 17.5299 42.6779V44.2792ZM17.5299 47.8823C19.5975 46.6813 24.8957 45.7472 29.677 45.7472C34.4583 45.7472 39.6272 46.5478 41.824 47.7489V46.1475C39.3688 44.813 35.3628 43.8789 29.677 43.8789C23.9911 43.8789 19.9852 44.813 17.5299 46.1475V47.8823Z" fill="#181818"/>
<path fill-rule="evenodd" clip-rule="evenodd" d="M15.8468 43.7939C15.7999 43.1668 15.2447 42.4542 14.6332 41.6692C13.9546 40.7982 13.2067 39.8382 13.0071 38.8074C12.678 37.3023 12.2976 35.0554 11.8721 32.5422C11.128 28.1474 10.2461 22.9382 9.25957 19.4574H9.13035C7.70889 19.4574 6.41664 18.1229 6.41664 16.7884C6.41664 15.187 7.96733 13.5857 9.51802 13.5857C10.9395 13.5857 12.2317 15.187 12.2317 16.3881C12.2317 17.319 11.5901 18.2499 10.8183 18.7846C10.8156 18.7864 10.8129 18.7883 10.8103 18.7901C10.8172 18.8034 10.8242 18.8167 10.8312 18.8301C11.2084 19.55 11.6115 20.3433 12.0435 21.1934C13.3247 23.7145 14.8599 26.7353 16.7248 29.8259C16.9779 30.2453 17.2371 30.6661 17.5025 31.087C17.5545 31.1694 17.6067 31.2518 17.6591 31.3343C17.7884 31.2676 17.9176 31.2342 18.0468 31.2008C18.176 31.1675 18.3053 31.1341 18.4345 31.0674C18.4329 30.9928 18.4313 30.9183 18.4298 30.8439C18.4243 30.5862 18.4189 30.3289 18.4135 30.0723C18.4083 29.8272 18.4032 29.5826 18.398 29.3387C18.282 23.8343 18.176 18.6417 18.176 14.6532C16.8838 14.5198 15.85 13.1853 15.85 12.1177C15.85 10.5163 17.4007 9.04842 18.9514 9.04842C20.3728 9.04842 21.6651 10.6498 21.6651 11.8508C21.6651 12.785 21.019 13.7191 20.1144 14.2529C21.0281 18.0272 22.9513 23.5737 24.7241 27.944C24.931 28.4542 25.1359 28.9484 25.3369 29.4219C25.3622 29.4814 25.3874 29.5406 25.4126 29.5994C25.671 29.5994 26.0587 29.5994 26.3171 29.466C26.321 29.3802 26.3252 29.2941 26.3296 29.2077C26.3553 28.7068 26.3905 28.1963 26.4336 27.6788C26.7032 24.4425 27.2832 20.9335 27.8028 17.79C28.144 15.7258 28.4591 13.8193 28.6432 12.2512C27.7386 11.8508 26.9633 10.7832 26.9633 9.84911C26.9633 8.24773 28.514 6.7798 30.0646 6.7798C31.4861 6.7798 32.7784 8.38118 32.7784 9.58221C32.7784 10.7832 31.8738 11.8508 30.84 12.2512C31.0453 14.0534 31.4137 16.2768 31.8076 18.6536C32.3026 21.6406 32.8377 24.8699 33.1397 27.8104C33.1876 28.2767 33.2297 28.7358 33.2648 29.1855C33.2756 29.3244 33.2858 29.4624 33.2952 29.5994H34.1998C34.2093 29.578 34.2188 29.5565 34.2283 29.5349C34.437 29.0622 34.6469 28.5721 34.8567 28.0685C36.7178 23.6015 38.5732 18.0729 39.498 14.2529C38.7227 13.7191 38.2058 12.9184 38.2058 12.1177C38.2058 10.5163 39.7564 9.04842 41.3071 9.04842C42.7286 9.04842 44.0209 10.6498 44.0209 11.8508C44.0209 13.3188 42.7286 14.5198 41.4364 14.7867C41.4364 18.6545 41.3304 23.9455 41.2144 29.4698C41.214 29.4859 41.2137 29.5019 41.2133 29.518C41.2054 29.8972 41.1974 30.2774 41.1893 30.6584L41.1779 31.2008C41.1886 31.2008 41.1993 31.2011 41.21 31.2015C41.4577 31.2119 41.7055 31.3398 41.9533 31.4677C42.0057 31.3853 42.0579 31.3029 42.1098 31.2204C42.3753 30.799 42.6345 30.3767 42.8876 29.9549C44.68 26.9681 46.1678 24.0032 47.4182 21.5112C47.9076 20.5361 48.3605 19.6334 48.7812 18.8301C48.7882 18.8168 48.7952 18.8034 48.8021 18.7901C48.7995 18.788 48.7969 18.7858 48.7943 18.7837C48.1529 18.2499 47.7683 17.453 47.7683 16.7884C47.7683 15.187 49.319 13.7191 50.8697 13.7191C52.2912 13.7191 53.5834 15.3205 53.5834 16.5215C53.5834 18.1229 51.9035 19.4574 50.4821 19.4574H50.3528C49.4636 22.5948 48.7444 27.1363 48.0977 31.2201C47.6165 34.258 47.1755 37.0427 46.7346 38.8074C46.5501 39.5693 45.8683 40.4521 45.2042 41.312C44.4726 42.2593 43.7624 43.1789 43.7624 43.8784C43.7624 44.7632 43.8296 45.7521 43.8955 46.7212C43.9588 47.6523 44.0209 48.5651 44.0209 49.3498C44.0209 49.7609 43.8429 50.1447 43.5072 50.4984C43.4888 50.5177 43.4701 50.5369 43.4508 50.556C41.761 52.2339 36.4779 53.2198 29.8062 53.2198C23.6443 53.2198 18.1576 52.2609 16.2796 50.5546C16.1024 50.3935 15.9573 50.2258 15.8468 50.0516C15.6795 49.7879 15.5916 49.5092 15.5916 49.2163C15.5916 48.226 15.6642 47.1981 15.7324 46.2321C15.7845 45.4955 15.834 44.795 15.8468 44.1744C15.8489 44.0736 15.85 43.9748 15.85 43.8784C15.85 43.8504 15.8489 43.8222 15.8468 43.7939ZM17.5299 44.2788C17.5661 44.2577 17.6033 44.2368 17.6414 44.2158C17.8132 44.1215 18.0047 44.0282 18.2141 43.9362C18.5126 43.805 18.8473 43.6767 19.213 43.5525C19.912 43.3152 20.7241 43.093 21.612 42.8952C23.9936 42.3648 26.9212 42.0101 29.677 42.0101C32.557 42.0101 35.5776 42.3975 38.0046 42.968C38.7865 43.1518 39.5068 43.3546 40.1409 43.5696C40.5013 43.6918 40.8339 43.8179 41.1341 43.9468C41.3237 44.0281 41.5004 44.1105 41.6631 44.1937C41.7184 44.222 41.772 44.2503 41.824 44.2788V42.6774C40.9092 42.1802 39.7792 41.72 38.4271 41.3383C36.1504 40.6956 33.2443 40.2753 29.677 40.2753C26.256 40.2753 23.4432 40.6618 21.2104 41.2603C19.7321 41.6566 18.508 42.1458 17.5299 42.6774V44.2788ZM18.3965 45.7219C18.389 45.7253 18.3815 45.7286 18.374 45.7319C18.0747 45.8652 17.7934 46.0038 17.5299 46.147V47.8819C17.7447 47.7571 17.9943 47.6352 18.2745 47.517C18.5575 47.3976 18.8718 47.2819 19.213 47.1707C19.3177 47.1365 19.4249 47.1028 19.5344 47.0696C22.1204 46.2849 26.0476 45.7467 29.677 45.7467C32.8575 45.7467 36.2096 46.101 38.7443 46.6918C39.2441 46.8083 39.7122 46.934 40.1409 47.068C40.5001 47.1802 40.8317 47.2984 41.1312 47.4218C41.3864 47.5269 41.6182 47.6359 41.824 47.7484V46.147C41.5723 46.0102 41.3043 45.8776 41.0198 45.7498C40.9919 45.7372 40.9639 45.7248 40.9356 45.7123C40.4073 45.4793 39.8234 45.2626 39.1832 45.0658C36.8061 44.335 33.6521 43.8784 29.677 43.8784C24.9969 43.8784 21.455 44.5113 18.9792 45.4794C18.7779 45.5581 18.5837 45.639 18.3965 45.7219ZM48.3687 39.2103C48.2004 39.8999 47.8344 40.5292 47.508 41.0198C47.2047 41.4758 46.8477 41.9379 46.5384 42.3381C46.5036 42.3831 46.4694 42.4274 46.436 42.4708C46.0809 42.9313 45.8051 43.2991 45.6146 43.6159C45.4975 43.8105 45.4576 43.9146 45.4457 43.9458C45.4489 44.7293 45.5073 45.6142 45.5709 46.55L45.5768 46.6372C45.6385 47.5443 45.704 48.5068 45.704 49.3498C45.704 50.7502 44.8028 51.7374 43.8934 52.3581C42.97 52.9883 41.747 53.4575 40.3947 53.8133C37.6663 54.5311 33.9543 54.9029 29.8062 54.9029C25.9092 54.9029 22.1999 54.5299 19.4117 53.7967C18.0299 53.4333 16.7632 52.9533 15.8031 52.3095C14.8656 51.6809 13.9084 50.6695 13.9084 49.2163C13.9084 48.215 13.9775 47.1919 14.0418 46.279L14.0516 46.1407C14.1116 45.2902 14.163 44.5616 14.1667 43.9479C14.1531 43.9143 14.1168 43.8319 14.0292 43.6905C13.8563 43.4112 13.6126 43.0982 13.2733 42.6623L13.2458 42.627C13.2294 42.6059 13.2127 42.5845 13.1957 42.5627C12.5888 41.784 11.6409 40.5677 11.3589 39.1492C11.0215 37.6021 10.6316 35.2988 10.2046 32.7766C10.0469 31.8453 9.8842 30.8841 9.7172 29.9201C9.16471 26.7308 8.56153 23.4841 7.91836 20.9545C7.18697 20.7269 6.54699 20.3098 6.05068 19.8138C5.30031 19.064 4.73352 17.9879 4.73352 16.7884C4.73352 15.4592 5.36143 14.2576 6.17669 13.4157C6.98866 12.5772 8.17584 11.9025 9.51802 11.9025C10.8566 11.9025 11.954 12.6355 12.653 13.4039C13.3435 14.163 13.9148 15.2494 13.9148 16.3881C13.9148 17.443 13.4777 18.3917 12.8827 19.1324C13.1039 19.5641 13.3318 20.0125 13.5671 20.4755C14.473 22.2577 15.4885 24.2556 16.6523 26.3436C16.574 22.4961 16.5099 18.885 16.4958 15.8481C16.0044 15.5763 15.5869 15.2186 15.2575 14.8392C14.6415 14.1297 14.1669 13.1521 14.1669 12.1177C14.1669 10.7742 14.8076 9.5934 15.644 8.77763C16.4778 7.96438 17.6573 7.3653 18.9514 7.3653C20.29 7.3653 21.3874 8.09828 22.0863 8.86666C22.7768 9.62572 23.3482 10.7122 23.3482 11.8508C23.3482 13.0451 22.7903 14.1057 22.0135 14.8886C22.7425 17.6185 23.8979 21.0722 25.1065 24.2921C25.2885 22.8773 25.5028 21.4609 25.7212 20.0929C25.8653 19.1902 26.0102 18.3132 26.1496 17.4702C26.4162 15.8573 26.6622 14.3687 26.8422 13.0626C26.5538 12.8069 26.3009 12.5205 26.0901 12.2225C25.6433 11.5912 25.2801 10.7574 25.2801 9.84911C25.2801 8.50562 25.9209 7.32478 26.7573 6.50901C27.5911 5.69576 28.7706 5.09668 30.0646 5.09668C31.4032 5.09668 32.5006 5.82966 33.1996 6.59804C33.8901 7.3571 34.4615 8.44354 34.4615 9.58221C34.4615 11.0669 33.6764 12.3288 32.6466 13.1336C32.8536 14.6691 33.1477 16.4444 33.4639 18.3526C33.5667 18.9735 33.6719 19.6086 33.7772 20.254C34.0078 21.667 34.2374 23.1231 34.4377 24.565C35.7049 21.2278 36.8742 17.6516 37.6179 14.8228C36.9777 14.1033 36.5226 13.1721 36.5226 12.1177C36.5226 10.7742 37.1633 9.59341 37.9998 8.77764C38.8336 7.96438 40.0131 7.3653 41.3071 7.3653C42.6457 7.3653 43.7431 8.09828 44.4421 8.86666C45.1326 9.62571 45.704 10.7122 45.704 11.8508C45.704 13.7226 44.511 15.1777 43.1167 15.936C43.1027 18.9153 43.0386 22.569 42.9603 26.4482C44.0538 24.4616 45.0155 22.5451 45.8814 20.8197C46.1951 20.1945 46.4963 19.5944 46.7866 19.0251C46.349 18.3501 46.0852 17.5665 46.0852 16.7884C46.0852 15.4449 46.7259 14.2641 47.5623 13.4483C48.3962 12.6351 49.5756 12.036 50.8697 12.036C52.2083 12.036 53.3057 12.769 54.0047 13.5374C54.6952 14.2964 55.2665 15.3828 55.2665 16.5215C55.2665 17.9243 54.5391 19.0842 53.687 19.8453C53.1331 20.3399 52.4432 20.7431 51.6951 20.9618C51.0693 23.4765 50.5224 26.7059 50.0119 29.8986C49.928 30.4233 49.8449 30.948 49.7625 31.4683C49.284 34.492 48.829 37.3664 48.3687 39.2103ZM40.3706 38.1166C37.5548 37.1804 33.8217 36.5388 29.8062 36.5388C25.9036 36.5388 22.4103 37.1727 19.6802 38.0417C18.7715 38.3309 17.9473 38.6462 17.2207 38.9728C16.7207 39.1976 16.267 39.4278 15.8637 39.6585C15.8198 39.6836 15.7765 39.7087 15.7338 39.7338C15.7295 39.7364 15.7251 39.739 15.7208 39.7415L16.4961 41.076C16.4991 41.0743 16.5022 41.0726 16.5052 41.0708C17.4232 40.5509 18.6816 40.0647 20.1653 39.6536C22.864 38.9059 26.3083 38.407 29.8062 38.407C33.3943 38.407 37.101 38.9579 39.8825 39.728C41.1957 40.0915 42.3026 40.5039 43.0936 40.9303C43.1012 40.9344 43.1088 40.9385 43.1163 40.9426L43.8916 39.7415C43.8619 39.7216 43.8319 39.7017 43.8015 39.6819C43.7481 39.647 43.6936 39.6123 43.6379 39.5777C43.2767 39.3532 42.8681 39.134 42.4169 38.9226C41.8082 38.6373 41.1221 38.3665 40.3706 38.1166Z" fill="#BDA581"/>
</svg>
