<svg width="60" height="60" viewBox="0 0 60 60" fill="none" xmlns="http://www.w3.org/2000/svg">
<path d="M42.6336 19.9609L41.6023 20.7587V36.0506L44.0516 39.109C44.6962 39.9068 44.8251 40.0398 44.8251 40.7047V45.7576L45.5986 45.8906C46.2432 46.0236 46.7588 46.5555 46.7588 47.3533V52.1403H13.2412V47.4863C13.2412 46.6885 13.628 46.1566 14.2725 46.0236L15.046 45.8906V40.8376C15.046 40.1728 15.1749 40.0398 15.8195 39.242L18.2689 36.1836V20.7587L17.2375 19.9609C16.2062 19.1631 14.2725 17.8333 14.2725 17.1685V11.4506C14.2725 9.85495 18.1399 9.05711 20.2026 8.65819V12.6474C22.0074 12.3814 23.9411 12.1155 25.8748 12.1155V7.99332C26.9061 7.99332 28.1952 7.86035 30 7.86035C31.8048 7.86035 32.965 7.86035 34.1252 7.99332V12.1155C36.059 12.1155 37.9927 12.3814 39.7975 12.6474V8.65819C41.989 9.05711 45.7275 9.85495 45.7275 11.4506V17.1685C45.7275 17.8333 43.7938 19.1631 42.6336 19.9609ZM44.6962 47.3533H15.3038C14.9171 47.3533 14.7882 47.4863 14.7882 47.8852V48.949H45.2118V47.8852C45.2118 47.4863 45.0829 47.3533 44.6962 47.3533ZM30 16.1047C34.8987 16.1047 39.7975 16.6366 42.8914 17.4344C43.1492 17.3014 43.6649 16.9025 43.7938 16.6366C43.9227 16.3706 43.9227 16.2376 43.6649 16.1047C42.8914 15.7058 41.3444 15.3068 40.0553 15.1739C37.3481 14.7749 34.1253 14.509 29.8711 14.509C26.0037 14.509 22.3941 14.7749 19.558 15.1739C18.3978 15.3068 16.9797 15.7058 16.2062 16.1047C15.9484 16.2376 15.9484 16.3706 16.0773 16.6366C16.2062 16.9025 16.7219 17.3014 16.9797 17.4344C20.3315 16.6366 24.9724 16.1047 30 16.1047ZM17.7532 40.0398C17.3665 40.0398 17.1086 40.1728 17.1086 40.7047V41.7685H43.0203V40.7047C43.0203 40.3058 42.8914 40.0398 42.3757 40.0398H17.7532ZM19.9447 36.7155L18.7845 38.1782H41.3444L40.1842 36.7155H19.9447ZM40.1842 21.6895V20.0939C37.3481 19.562 33.6096 19.296 30 19.296C26.5193 19.296 22.3941 19.429 19.8158 20.0939V21.6895C22.2652 21.2906 26.1326 21.0247 30 21.0247C33.6096 21.0247 36.9614 21.1576 40.1842 21.6895Z" fill="#181818"/>
<path fill-rule="evenodd" clip-rule="evenodd" d="M41.4175 8.98472C43.4569 9.44796 45.7275 10.2069 45.7275 11.4505V17.1683C45.7275 17.8332 43.7938 19.1629 42.6336 19.9608L41.6023 20.7586V36.0505L44.0516 39.1089C44.0762 39.1393 44.1001 39.1688 44.1232 39.1974C44.1929 39.2835 44.256 39.3615 44.313 39.4331C44.4261 39.5751 44.5154 39.692 44.5856 39.7981C44.7758 40.0856 44.8251 40.2933 44.8251 40.7046V45.7575L45.5986 45.8905C46.2095 46.0165 46.7045 46.5008 46.7546 47.2303C46.7574 47.2705 46.7588 47.3115 46.7588 47.3532V52.1402H13.2412V47.4862C13.2412 47.3724 13.2491 47.2639 13.2645 47.1613C13.342 46.6436 13.6105 46.2734 14.0217 46.1006C14.1002 46.0676 14.1839 46.0418 14.2725 46.0235L15.046 45.8905V40.8375C15.046 40.198 15.1653 40.0506 15.748 39.3303C15.7711 39.3018 15.7949 39.2723 15.8195 39.2419L18.2689 36.1835V20.7586L17.2376 19.9608C17.0762 19.8359 16.8927 19.6981 16.698 19.5518C15.6485 18.7631 14.2725 17.7292 14.2725 17.1683V11.4505C14.2725 10.2176 16.5813 9.461 18.5826 8.9967C19.1714 8.86008 19.7336 8.74877 20.2026 8.65807V12.6473C20.7325 12.5692 21.2736 12.4911 21.8226 12.4197C23.143 12.2481 24.5089 12.1154 25.8748 12.1154V7.99321C26.3188 7.99321 26.8105 7.96856 27.3706 7.9405C28.1116 7.90336 28.9722 7.86024 30 7.86024C31.8048 7.86024 32.965 7.86024 34.1253 7.99321V12.1154C35.4911 12.1154 36.857 12.2481 38.1775 12.4197C38.7264 12.4911 39.2675 12.5692 39.7975 12.6473V8.65807C40.2811 8.7461 40.84 8.85356 41.4175 8.98472ZM38.1775 10.7864V6.71657L40.0876 7.06426C41.1857 7.26414 42.7932 7.58365 44.1482 8.08683C44.8184 8.3357 45.5372 8.66852 46.1164 9.12832C46.6901 9.58381 47.3475 10.3502 47.3475 11.4505V17.1683C47.3475 17.6268 47.1879 17.9947 47.0658 18.2195C46.936 18.4587 46.7769 18.6657 46.6327 18.8325C46.3446 19.1656 45.9849 19.4869 45.6428 19.7674C44.9669 20.3216 44.1559 20.88 43.5889 21.2699L43.2223 21.5535V35.4818L45.3118 38.0908C45.3125 38.0917 45.3132 38.0926 45.3139 38.0934C45.3421 38.1283 45.3711 38.164 45.4007 38.2004C45.6452 38.501 45.9312 38.8526 46.1162 39.2069C46.4005 39.7516 46.4451 40.2487 46.4451 40.7046V44.4589C47.551 44.8966 48.3788 45.9565 48.3788 47.3532V53.7602H11.6212V47.4862C11.6212 46.8318 11.7804 46.1497 12.1948 45.5668C12.5133 45.1189 12.9397 44.7916 13.426 44.594V40.8375C13.426 40.3817 13.4706 39.8846 13.7549 39.3399C13.9399 38.9855 14.2259 38.6339 14.4704 38.3333C14.5 38.297 14.529 38.2613 14.5572 38.2265C14.5579 38.2256 14.5586 38.2247 14.5594 38.2238L16.6489 35.6147V21.5535L16.2463 21.2421C16.1179 21.1428 15.9562 21.0212 15.7756 20.8855C15.3346 20.5539 14.781 20.1377 14.3253 19.7542C13.9956 19.4769 13.643 19.1569 13.3601 18.8264C13.2183 18.6608 13.061 18.4546 12.9325 18.2168C12.8118 17.9936 12.6525 17.6263 12.6525 17.1683V11.4505C12.6525 10.3282 13.3433 9.56021 13.9178 9.11578C14.5048 8.66163 15.2321 8.3316 15.9067 8.08442C17.2703 7.58472 18.8748 7.26485 19.895 7.06755L21.8226 6.69474V10.7864C22.6102 10.6869 23.4257 10.6009 24.2548 10.5487V6.37321H25.8748C26.2749 6.37321 26.7203 6.35095 27.2851 6.32272C27.3761 6.31817 27.4703 6.31347 27.5679 6.30867C28.2529 6.27503 29.0576 6.24024 30 6.24024L30.0763 6.24024C31.8144 6.2402 33.0571 6.24018 34.3097 6.38374L35.7453 6.54827V10.5487C36.5743 10.6009 37.3898 10.6869 38.1775 10.7864ZM14.8357 47.5704C14.8024 47.6492 14.7882 47.7524 14.7882 47.8851V48.9489H45.2118V47.8851C45.2118 47.7224 45.1904 47.604 45.1388 47.5208C45.12 47.4904 45.0972 47.4648 45.07 47.4434C44.9887 47.3794 44.8678 47.3532 44.6962 47.3532H15.3038C15.3017 47.3532 15.2996 47.3532 15.2975 47.3532C15.0722 47.3541 14.9355 47.401 14.8612 47.5208C14.8517 47.5361 14.8432 47.5526 14.8357 47.5704ZM42.8112 40.1483C42.8094 40.147 42.8075 40.1457 42.8056 40.1444C42.7074 40.0769 42.5686 40.0397 42.3757 40.0397H17.7532C17.5765 40.0397 17.4267 40.0675 17.3161 40.1483C17.1847 40.2445 17.1086 40.4157 17.1086 40.7046V41.7683H43.0203V40.7046C43.0203 40.5625 43.004 40.4373 42.9596 40.335C42.9269 40.2595 42.879 40.1965 42.8112 40.1483ZM41.3444 38.1781L40.1842 36.7154H19.9447L18.7845 38.1781H41.3444ZM39.9823 20.0566C39.4078 19.9529 38.7984 19.8599 38.1622 19.7774C35.686 19.4564 32.8041 19.2959 30 19.2959C26.7305 19.2959 22.8922 19.4132 20.3016 19.9785C20.1602 20.0094 20.0225 20.0416 19.8889 20.0752C19.8644 20.0813 19.84 20.0875 19.8158 20.0937V21.6894C19.84 21.6855 19.8644 21.6816 19.8889 21.6776C19.9939 21.6608 20.1015 21.6443 20.2115 21.628C20.3333 21.6099 20.458 21.5921 20.5856 21.5747C20.8568 21.5377 21.1406 21.5021 21.4358 21.4681C23.8048 21.1952 26.9024 21.0246 30 21.0246C32.7903 21.0246 35.4265 21.104 37.9682 21.3858C38.1675 21.4079 38.3661 21.4312 38.5642 21.4558C39.0101 21.5113 39.4531 21.5733 39.8937 21.6426C39.9233 21.6473 39.9528 21.6519 39.9823 21.6566C40.0496 21.6674 40.117 21.6783 40.1842 21.6894V20.0937C40.1174 20.0812 40.0501 20.0688 39.9823 20.0566ZM40.0553 15.1737C38.4477 14.9369 36.6583 14.7469 34.5791 14.6316C33.1924 14.5547 31.6767 14.5111 30 14.509C29.9571 14.5089 29.9142 14.5089 29.8711 14.5089C28.4437 14.5089 27.0514 14.5451 25.7202 14.6109C23.4446 14.7233 21.3474 14.9221 19.558 15.1737C18.7393 15.2676 17.7923 15.4938 17.0339 15.759C16.8876 15.8102 16.7484 15.8628 16.6184 15.9162C16.4672 15.9783 16.3287 16.0414 16.2062 16.1046C15.9484 16.2375 15.9484 16.3705 16.0773 16.6365C16.1877 16.8642 16.5818 17.1895 16.8546 17.3617C16.9004 17.3906 16.9427 17.4152 16.9797 17.4343C17.0402 17.4199 17.1011 17.4056 17.1624 17.3914C17.2677 17.3669 17.3742 17.3428 17.4818 17.3189C19.7946 16.8058 22.6585 16.4163 25.8078 16.2285C27.1192 16.1504 28.48 16.1072 29.8711 16.1047C29.914 16.1046 29.957 16.1046 30 16.1046C31.5123 16.1046 33.0246 16.1553 34.4838 16.2488C37.424 16.4373 40.1486 16.7999 42.2232 17.2724C42.3875 17.3099 42.5477 17.348 42.7036 17.3867C42.7669 17.4025 42.8295 17.4183 42.8914 17.4343C42.9284 17.4152 42.9708 17.3906 43.0165 17.3617C43.2893 17.1895 43.6834 16.8642 43.7938 16.6365C43.9227 16.3705 43.9227 16.2375 43.6649 16.1046C43.5518 16.0462 43.4222 15.9879 43.2792 15.9304C43.0889 15.8539 42.875 15.7788 42.6451 15.7071C41.8667 15.4646 40.905 15.2614 40.0553 15.1737Z" fill="#BDA581"/>
</svg>
