<svg width="60" height="60" viewBox="0 0 60 60" fill="none" xmlns="http://www.w3.org/2000/svg">
<path fill-rule="evenodd" clip-rule="evenodd" d="M22.2143 51H48.7857C49.0714 49.6727 49.5 47.1655 49.5 43.6259C49.5 27.9928 40.0714 15.8993 29.5 14.277L28.7857 14.1295L28.6429 13.3921C28.2143 11.7698 27.0714 10.4424 26.5 10C25.7857 10.5899 24.6429 11.7698 24.3571 14.277V15.0144C23.0714 15.4568 21.9286 16.1942 21.0714 16.9317L20.7857 16.7302C21.2143 15.9928 22.7143 15.295 23 15C22.8571 14.4101 20.6429 12.3597 19.9286 11.9173C18.7857 11.1799 17.7857 10.8849 17.0714 10.8849V13.0971C17.0714 15.0144 17.5 16.3417 17.7857 17.5216C16.3571 18.554 15.5 20.4712 15.2143 21.3561C14.3571 23.8633 14.5 25.1906 13.6429 26.6655C11.3571 30.5 9.5 33.0072 9.5 34.777C9.5 37.5791 9.92857 39.6439 12.0714 39.6439C12.6429 39.6439 13.5 39.6439 14.2143 39.3489C14.2143 40.0863 14.9286 40.6763 15.5 40.6763C17.3571 40.6763 17.6429 36.6942 19.7857 35.3669C24.3571 32.1223 30.6429 31.8273 30.6429 24.1583H31C31 27.9928 30.2857 29.3777 29 31C29.4286 38.2266 24.7857 40.8381 22.2143 46C21.2143 47.7698 22.2143 50.2626 22.2143 51Z" fill="#F9F1E4"/>
<path d="M49.9667 51H19.3C19.1667 49.1032 19.1667 46.8 20.7667 43.8194C22.7667 40.0258 27.3 37.9935 27.5667 32.5742C25.9667 33.6581 24.2333 34.3355 22.6333 35.2839C19.8333 36.9097 19.8333 41.1097 16.2333 41.5161C14.9 41.6516 14.1 41.1097 13.7 40.4323C13.4333 40.4323 13.3 40.4323 13.0333 40.4323C10.2333 40.4323 8.5 38.2645 8.5 33.7936C8.5 31.8968 10.3667 29.3226 12.9 25.2581C13.7 24.0387 13.3 22.8194 14.2333 20.6516C14.6333 19.5677 15.4333 18.6194 16.5 17.4C16.3667 16.7226 16.1 15.7742 16.1 14.4194C16.1 12.929 16.1 11.3032 16.7667 9.8129C16.7667 9.8129 19.4333 9.67742 21.5667 11.4387C22.2333 11.9806 22.7667 12.5226 23.1667 12.929C24.2333 10.7613 26.1 9.27097 26.9 9C27.7 9.54194 29.7 11.3032 30.5 13.7419C41.3 15.7742 50.5 27.5613 50.5 42.7355C50.5 47.3419 50.2333 50.0516 49.9667 51ZM22.3667 48.8323H47.1667C47.4333 47.6129 47.8333 45.3097 47.8333 42.0581C47.8333 27.6968 39.0333 16.5871 29.1667 15.0968L28.5 14.9613L28.3667 14.2839C27.9667 12.7935 26.9 11.5742 26.3667 11.1677C25.7 11.7097 24.6333 12.7935 24.3667 15.0968V15.7742C23.1667 16.1806 22.1 16.8581 21.3 17.5355L20.6333 16.7226C21.0333 16.0452 21.8333 15.2323 22.1 14.9613C21.9667 14.4194 20.9 13.3355 20.2333 12.929C19.1667 12.2516 18.2333 11.9806 17.5667 11.9806C17.5667 12.3871 17.5667 13.0645 17.5667 14.0129C17.5667 15.7742 17.9667 16.9935 18.2333 18.0774C16.9 19.0258 16.1 20.7871 15.8333 21.6C15.0333 23.9032 15.1667 25.1226 14.3667 26.4774C12.2333 30 10.5 32.3032 10.5 33.929C10.5 36.5032 10.9 38.4 12.9 38.4C13.4333 38.4 14.2333 38.4 14.9 38.129C14.9 38.8065 15.5667 39.3484 16.1 39.3484C17.8333 39.3484 18.1 35.6903 20.1 34.471C24.3667 31.4903 30.2333 31.2194 30.2333 24.1742H31.5667C31.5667 27.6968 30.6333 29.729 29.4333 31.2194C29.8333 37.8581 25.7 40.0258 23.3 44.7677C22.3667 46.3935 22.3667 48.1548 22.3667 48.8323ZM15.1667 34.471C15.1667 35.0129 14.3667 35.0129 14.3667 35.5548C14.3667 36.0968 13.8333 36.6387 13.3 36.6387C12.9 36.6387 12.5 36.2323 12.5 35.5548C12.5 34.8774 13.1667 33.1161 14.1 33.1161C15.0333 33.1161 15.1667 33.929 15.1667 34.471ZM21.3 20.5161C21.9667 20.5161 21.9667 21.0581 21.9667 21.329C21.9667 21.871 21.0333 21.4645 21.0333 22.2774C21.0333 22.8194 21.5667 23.6323 20.3667 24.1742C19.1667 24.7161 18.7667 24.1742 18.6333 24.7161C18.6333 24.8516 18.1 25.2581 17.7 25.2581C17.3 25.2581 17.0333 24.8516 17.0333 24.4452C17.3 22.2774 19.3 20.5161 21.3 20.5161Z" fill="#332007"/>
</svg>
