<svg width="60" height="60" viewBox="0 0 60 60" fill="none" xmlns="http://www.w3.org/2000/svg">
<path d="M26.4866 20.2183C26.7617 20.0775 26.8993 19.7958 26.4866 19.5141C25.5236 18.5282 24.8358 17.2606 24.8358 15.993C24.8358 13.1761 27.4495 10.5 30.2008 10.5C32.8146 10.5 35.0157 13.1761 35.0157 15.4296C35.0157 17.1197 34.0527 18.5282 32.677 19.5141C32.4019 19.7958 32.5395 19.9366 32.9522 20.0775C35.5659 21.0634 38.0421 23.0352 38.0421 26.4155C38.0421 29.3732 36.804 31.3451 34.8781 32.4718C34.603 32.6127 34.603 33.0352 34.8781 33.1761C39.968 35.8521 42.8569 41.0634 42.8569 46.2746C42.8569 48.3873 42.5818 49.6549 42.0315 50.5H17.6823C17.1321 49.5141 16.8569 48.2465 16.8569 46.2746C16.8569 41.3451 19.4707 35.8521 24.5606 33.3169C24.8358 33.1761 24.9733 32.7535 24.4231 32.4718C22.9098 31.3451 21.8093 29.5141 21.8093 27.1197C21.8093 23.4577 24.1479 21.4859 26.4866 20.2183Z" fill="#F9F1E4"/>
<path d="M25.9998 19.2143C24.7141 18.2143 24.2855 16.9286 24.2855 15.5C24.2855 12.0714 27.1426 9.5 30.2855 9.5C33.4284 9.5 35.8569 11.9286 35.8569 15.0714C35.8569 16.6429 35.1426 18.2143 33.8569 19.2143C36.8569 20.3571 39.1426 22.7857 39.1426 26.3571C39.1426 29.0714 37.9998 30.9286 35.9998 32.3571C41.5712 34.7857 44.1426 40.2143 44.1426 45.0714C44.1426 47.5 43.7141 49.0714 42.7141 50.5H17.1426C16.1426 48.7857 15.8569 47.5 15.8569 45.0714C15.8569 40.2143 18.5712 34.3571 23.8569 32.3571C21.9998 30.9286 20.8569 29.0714 20.8569 26.7857C20.8569 23.0714 22.8569 20.5 25.9998 19.2143ZM26.7141 32.3571V32.9286C21.4284 34.9286 18.2855 40.3571 18.2855 45.0714C18.2855 46.3571 18.5712 47.3571 18.8569 48.2143H41.1426C41.4284 47.5 41.7141 46.5 41.7141 45.0714C41.7141 39.5 37.7141 34.2143 32.8569 32.9286V32.3571C35.8569 30.9286 36.8569 28.6429 36.8569 26.3571C36.8569 23.2143 34.9998 20.6429 31.2855 19.6429V19.2143C32.8569 18.5 33.8569 17.0714 33.8569 15.3571C33.8569 12.9286 32.2855 11.5 30.2855 11.5C28.4284 11.5 26.2855 12.7857 26.2855 15.6429C26.2855 16.9286 26.9998 18.3571 28.1426 19.2143V19.7857C24.9998 21.0714 22.9998 23.5 22.9998 26.7857C23.1426 29.0714 24.4284 31.0714 26.7141 32.3571Z" fill="#332007"/>
</svg>
