<svg width="60" height="60" viewBox="0 0 60 60" fill="none" xmlns="http://www.w3.org/2000/svg">
<path d="M11.9301 15.3621C13.1959 15.3621 13.9342 16.7414 13.9342 17.7759C13.9342 18.5805 13.3589 19.3851 12.6685 19.8448C14.1643 22.6034 16.5328 26.6264 19.1794 30.6494C19.4096 30.5345 19.6397 30.5345 19.8698 30.4195C19.7548 25.1322 19.6397 20.0747 19.6397 16.2816C18.489 16.1667 17.5685 15.0172 17.5685 14.0977C17.5685 12.7184 18.9493 11.454 20.3301 11.454C21.5959 11.454 22.7465 12.8333 22.7465 13.8678C22.7465 14.6724 22.1712 15.477 21.3657 15.9368C22.2863 19.6149 24.3575 25.2471 26.0835 29.1552C26.3137 29.1552 26.6589 29.1552 26.889 29.0402C27.1191 24.0977 28.5 18.0057 28.9602 14.2126C28.1548 13.8678 27.4643 12.9483 27.4643 12.1437C27.4643 10.7644 28.8452 9.5 30.226 9.5C31.4917 9.5 32.6424 10.8793 32.6424 11.9138C32.6424 12.9483 31.837 13.8678 30.9164 14.2126C31.3767 18.1207 32.7575 24.3276 33.1027 29.1552C33.3328 29.1552 33.678 29.1552 33.9082 29.1552C35.7493 25.1322 37.7055 19.6149 38.626 15.9368C37.9356 15.477 37.4753 14.7874 37.4753 14.0977C37.4753 12.7184 38.8561 11.454 40.2369 11.454C41.5027 11.454 42.6534 12.8333 42.6534 13.8678C42.6534 15.1322 41.5027 16.1667 40.352 16.3966C40.352 20.0747 40.2369 25.2471 40.1219 30.5345C40.352 30.5345 40.5822 30.6494 40.8123 30.7644C43.4589 26.7414 45.415 22.6034 46.9109 19.8448C46.3356 19.3851 46.1685 18.5747 46.1685 18C46.1685 16.6207 47.3712 15.477 48.752 15.477C50.0178 15.477 51.1685 16.8563 51.1685 17.8908C51.1685 19.2701 49.6726 20.4195 48.4068 20.4195H48.2917C46.9109 25.1322 45.9904 33.523 45.0698 37.0862C44.7246 38.4655 42.4233 40.3046 42.4233 41.454C42.4233 42.9483 42.6534 44.7874 42.6534 46.1667C42.6534 48.2356 37.2452 49.5 29.9959 49.5C23.2068 49.5 17.3383 48.2356 17.3383 46.0517C17.3383 44.4425 17.5685 42.7184 17.5685 41.454C17.5685 40.3046 15.3822 38.8103 15.037 37.0862C14.2315 33.523 13.0808 25.1322 11.7 20.4195H11.5849C10.3191 20.4195 9.16846 19.2701 9.16846 18.1207C9.16846 16.7414 10.5493 15.3621 11.9301 15.3621Z" fill="#F9F1E4"/>
<path d="M11.0405 14.5093C12.7762 14.5093 14.2449 16.2453 14.2449 17.8478C14.2449 18.6491 13.8443 19.4503 13.1767 20.118C14.2449 22.2547 16.2476 25.3261 18.5174 28.7981C18.3839 24.5248 18.2504 20.118 18.2504 16.913C17.1822 16.3789 16.3811 15.177 16.3811 14.2422C16.3811 12.5062 18.1169 10.6366 19.9861 10.6366C21.7218 10.6366 23.1905 12.3727 23.1905 13.9752C23.1905 15.0435 22.6565 15.8447 21.8553 16.5124C22.79 19.8509 24.3922 24.5248 25.9944 28.264C26.662 23.7236 27.5966 18.1149 27.9971 14.6429C27.0625 14.1087 26.3949 13.0404 26.3949 11.972C26.3949 10.236 28.1306 8.5 30.1334 8.5C31.8691 8.5 33.3378 10.236 33.3378 11.8385C33.3378 13.0404 32.6702 13.9752 31.7356 14.6429C32.1362 18.1149 33.0708 23.8571 33.8719 28.5311C35.4741 24.6584 37.0763 19.8509 38.0109 16.646C37.3433 15.9783 36.9428 15.3106 36.9428 14.5093C36.9428 12.7733 38.6785 10.9037 40.5478 10.9037C42.2835 10.9037 43.7522 12.6398 43.7522 14.2422C43.7522 15.5776 42.684 16.7795 41.4824 17.3137C41.4824 20.5186 41.3489 24.7919 41.2153 29.0652C43.4851 25.4596 45.6214 22.2547 46.6895 20.118C46.289 19.5838 46.022 18.9161 46.022 18.382C46.022 16.646 47.7577 14.7764 49.6269 14.7764C51.3626 14.7764 52.8313 16.5124 52.8313 18.1149C52.8313 19.8509 50.9621 21.4534 49.3599 21.587C48.1582 26.6615 46.9566 33.3385 45.6214 38.413C45.2209 40.1491 42.8175 41.618 42.8175 43.354C42.8175 44.1553 43.0846 46.1584 43.0846 47.2267C43.0846 49.764 37.7439 51.5 29.7329 51.5C21.9889 51.5 16.3811 49.8975 16.3811 47.2267C16.3811 46.1584 16.6482 44.1553 16.6482 43.354C16.6482 41.618 14.2449 40.1491 13.7108 38.146C12.5091 33.205 11.174 26.6615 10.1058 21.587C8.50362 21.3199 7.16846 19.8509 7.16846 18.5155C7.43549 16.3789 9.17121 14.5093 11.0405 14.5093ZM10.6399 19.4503C11.3075 19.4503 12.3756 18.7826 12.3756 17.9814C12.3756 17.3137 11.708 16.646 11.0405 16.646C10.2393 16.646 9.30473 17.4472 9.30473 18.382C9.30473 18.7826 9.97232 19.4503 10.6399 19.4503ZM14.9125 33.472C15.9806 32.8043 17.0487 32.1366 18.2504 31.736C16.1141 28.264 13.8443 24.9255 12.3756 22.3882C13.1767 25.5932 14.1113 30.1335 14.9125 33.472ZM42.9511 39.0807C43.3516 38.413 43.7522 37.7453 44.0192 36.8106C44.1527 36.4099 44.2862 35.8758 44.4197 35.3416C40.2807 32.4037 34.406 31.6025 29.7329 31.6025C24.7927 31.6025 18.6509 32.6708 15.1795 35.0745C15.313 35.4752 15.4465 35.7422 15.4465 36.1429C15.7136 37.3447 16.2476 38.146 16.9152 38.9472C19.5856 37.3447 24.2587 35.8758 29.8664 35.8758C35.6076 35.8758 40.4142 37.4783 42.9511 39.0807ZM41.2153 41.4845C41.3489 41.0838 41.6159 40.8168 41.8829 40.4161C39.4796 38.9472 34.5395 37.7453 29.8664 37.7453C25.1933 37.7453 20.3867 38.8137 17.8498 40.2826C18.1169 40.6832 18.3839 40.9503 18.5174 41.4845C20.7872 40.2826 24.5257 39.3478 29.8664 39.3478C35.2071 39.3478 38.9455 40.4161 41.2153 41.4845ZM19.7191 15.4441H20.1196C20.7872 15.3106 21.4548 14.7764 21.4548 14.1087C21.4548 13.441 20.9207 12.7733 20.1196 12.7733C19.3185 12.7733 18.3839 13.5745 18.3839 14.5093C18.3839 14.9099 19.0515 15.4441 19.7191 15.4441ZM29.8664 48.9627C35.3406 48.9627 40.9483 48.028 40.9483 46.6925C40.9483 45.4907 35.2071 44.5559 29.8664 44.5559C24.7927 44.5559 18.7844 45.4907 18.7844 46.6925C18.7844 48.1615 24.7927 48.9627 29.8664 48.9627ZM40.9483 44.5559C40.9483 44.0217 40.9483 43.4876 40.9483 43.087C38.812 42.0186 34.1389 41.2174 29.8664 41.2174C25.5938 41.2174 20.9207 42.0186 18.7844 43.087C18.7844 43.4876 18.7844 44.0217 18.7844 44.4224C21.0542 43.354 24.6592 42.6863 29.8664 42.6863C34.94 42.6863 38.6785 43.4876 40.9483 44.5559ZM20.5202 30.8012C21.8553 30.4006 23.1905 30.1335 24.6592 30C22.9235 26.2609 21.1878 21.3199 20.2531 17.5807C20.2531 21.3199 20.5202 26.2609 20.5202 30.8012ZM32.1362 29.7329C31.4686 24.5248 30.534 19.0497 29.9999 15.4441C29.4658 19.0497 28.5312 24.6584 27.8636 29.7329C28.5312 29.7329 29.1988 29.7329 29.8664 29.7329C30.534 29.7329 31.3351 29.7329 32.1362 29.7329ZM29.7329 13.1739C30.4004 13.1739 31.4686 12.5062 31.4686 11.705C31.4686 11.0373 30.9345 10.3696 30.1334 10.3696C29.3323 10.3696 28.3977 11.1708 28.3977 11.972C28.3977 12.5062 29.0653 13.1739 29.7329 13.1739ZM39.4796 31.0683C39.4796 26.2609 39.7467 21.3199 39.8802 17.5807C38.812 21.1863 37.0763 26.2609 35.3406 30C36.6758 30.4006 38.1444 30.6677 39.4796 31.0683ZM40.1472 15.4441H40.4142C41.0818 15.4441 42.15 14.7764 42.15 13.9752C42.15 13.3075 41.6159 12.6398 40.8148 12.6398C40.0137 12.6398 39.0791 13.441 39.0791 14.3758C38.9455 14.7764 39.4796 15.3106 40.1472 15.4441ZM44.8203 33.6056C45.6214 30.1335 46.556 25.8602 47.3571 22.5217C45.8884 25.059 43.7522 28.264 41.6159 31.736C42.9511 32.4037 43.8857 32.9379 44.8203 33.6056ZM49.3599 19.4503C50.0275 19.4503 51.0956 18.7826 51.0956 17.9814C51.0956 17.3137 50.428 16.646 49.7604 16.646C48.9593 16.646 48.0247 17.4472 48.0247 18.382C48.0247 18.7826 48.6923 19.4503 49.3599 19.4503Z" fill="#332007"/>
</svg>
