<svg width="60" height="60" viewBox="0 0 60 60" fill="none" xmlns="http://www.w3.org/2000/svg">
<path d="M41.4845 20.7042L40.5614 21.4429V35.6021L42.7537 38.4339C43.3306 39.1727 43.446 39.2958 43.446 39.9114V44.5901L44.1383 44.7132C44.7152 44.8363 45.1768 45.3288 45.1768 46.0676V50.5H15.1768V46.1907C15.1768 45.452 15.5229 44.9595 16.0998 44.8363L16.7922 44.7132V40.0345C16.7922 39.4189 16.9075 39.2958 17.4845 38.5571L19.6768 35.7252V21.4429L18.7537 20.7042C17.8306 19.9655 16.0998 18.7342 16.0998 18.1186V12.8243C16.0998 11.3468 19.5614 10.6081 21.4075 10.2387V13.9324C23.0229 13.6862 24.7537 13.4399 26.4845 13.4399V9.62312C27.4075 9.62312 28.5614 9.5 30.1768 9.5C31.7921 9.5 32.8306 9.5 33.8691 9.62312V13.4399C35.5998 13.4399 37.3306 13.6862 38.946 13.9324V10.2387C40.9075 10.6081 44.2537 11.3468 44.2537 12.8243V18.1186C44.2537 18.7342 42.5229 19.9655 41.4845 20.7042Z" fill="#F9F1E4"/>
<path d="M44.0869 39.816V44.6238H44.3539C45.4221 44.7573 45.8227 45.158 45.8227 46.3599V50.5H14.1768V46.3599C14.1768 45.158 14.5773 44.8909 15.3785 44.7573L16.0461 44.6238V39.816C16.0461 39.1482 16.3132 39.0147 16.8473 38.4805L18.8502 36.0765V22.0537C17.3814 20.9853 15.1114 19.3827 15.1114 18.8485V12.8388C15.1114 11.2362 20.052 10.1678 22.4554 9.90065V12.8388C23.5237 12.7052 24.4584 12.5717 25.3931 12.4381V9.63355C27.1289 9.5 28.7312 9.5 30.2 9.5C31.5353 9.5 32.8706 9.5 34.8735 9.63355V12.4381C35.6747 12.5717 36.6093 12.7052 37.6776 12.8388V9.90065C40.8822 10.3013 45.0216 11.3697 45.0216 12.8388V18.8485C45.0216 19.3827 42.6181 20.9853 41.2828 22.0537V35.8094L43.2857 38.3469C43.8198 39.0147 44.0869 39.2818 44.0869 39.816ZM43.8198 48.7638V46.7606H16.0461V48.7638H43.8198ZM20.052 12.0375C18.8502 12.171 17.9155 12.5717 16.9808 12.8388V17.3795C19.3843 16.3111 24.7254 15.9104 29.933 15.9104C35.007 15.9104 40.3481 16.3111 42.8851 17.3795V12.9723C41.9504 12.5717 40.8822 12.3046 39.6805 12.0375V14.7085C37.1434 14.3078 35.1405 14.0407 32.47 14.0407V11.3697C31.6688 11.2362 30.8677 11.2362 29.933 11.2362C28.9983 11.2362 28.1971 11.2362 27.2624 11.3697V14.0407C24.5919 14.1743 22.589 14.3078 20.052 14.7085V12.0375ZM17.3814 18.8485C17.9155 19.3827 18.8502 20.0505 19.7849 20.5847L20.4525 20.9853C22.7225 20.5847 26.0607 20.3176 30.0665 20.3176C34.0723 20.3176 37.1435 20.7182 39.4134 21.1189L40.2146 20.5847C41.2828 19.9169 42.084 19.3827 42.6181 18.8485C39.0128 17.9137 34.6064 17.513 30.0665 17.513C25.3931 17.513 20.7196 17.9137 17.3814 18.8485ZM42.084 45.0244V41.0179H18.0491V45.0244H42.084ZM41.5499 39.2818L40.3481 37.8127H19.6514L18.4496 39.2818H41.5499ZM20.8531 22.5879V36.2101H39.1464V22.7215C36.7429 22.4544 33.8053 22.1873 29.933 22.1873C26.1942 22.0537 23.1231 22.3208 20.8531 22.5879Z" fill="#332007"/>
</svg>
