<svg width="60" height="60" viewBox="0 0 60 60" fill="none" xmlns="http://www.w3.org/2000/svg">
<path d="M25.3946 9.7246H28.5081V6.78027H31.3621V9.85843H34.3459V12.6689H31.3621V15.2117C33.5675 15.7471 35.3837 17.6207 35.3837 20.6989C35.3837 21.3681 35.254 22.0372 35.1242 22.5725C37.1999 20.5651 39.7945 19.4944 42.7782 19.4944C48.7458 19.4944 52.2484 23.9109 52.2484 28.3274C52.2484 35.4205 47.3187 38.7663 44.9836 40.9076C44.7242 41.1753 44.7242 41.443 44.7242 41.8445C44.7242 43.5843 44.8539 46.9301 44.8539 48.5361C44.8539 51.3466 38.2377 53.2203 30.0648 53.2203C21.7622 53.2203 15.2757 51.3466 15.2757 48.5361C15.2757 46.7963 15.4055 43.5843 15.4055 41.8445C15.4055 41.3091 15.4055 41.1753 15.146 40.9076C12.292 38.6325 7.75146 35.4205 7.75146 28.1935C7.75146 23.777 11.2541 19.4944 17.2217 19.4944C20.2054 19.4944 22.6703 20.5651 24.8757 22.5725C24.6162 22.0372 24.4865 21.3681 24.4865 20.6989C24.4865 17.6207 26.3027 15.8809 28.5081 15.2117V12.6689H25.3946V9.7246ZM16.9622 22.171C12.4217 22.171 10.0866 25.383 10.0866 28.9965C10.0866 34.216 12.9406 36.4912 16.573 40.1047C19.4271 38.4987 25.2648 37.1603 29.027 37.1603C29.027 29.398 24.0973 22.171 16.9622 22.171ZM17.2217 38.0972C13.8487 35.019 12.1622 32.7438 12.1622 28.9965C12.1622 26.186 14.3676 24.0447 17.2217 24.0447C22.5405 24.0447 26.5621 28.7289 27.3405 35.6882C24.227 35.9558 20.0757 36.8927 17.2217 38.0972ZM17.2217 43.5843C19.2973 42.246 24.8757 41.3091 29.9351 41.3091C34.9945 41.3091 40.4431 42.246 42.6485 43.5843V41.8445C40.0539 40.5061 35.9026 39.4355 29.9351 39.4355C23.9676 39.4355 19.8162 40.5061 17.2217 41.8445V43.5843ZM17.2217 47.3316C19.2973 45.9933 24.8757 45.1903 29.9351 45.1903C34.9945 45.1903 40.4431 45.9933 42.6485 47.1978V45.5918C40.0539 44.2535 35.9026 43.3166 29.9351 43.3166C23.9676 43.3166 19.8162 44.2535 17.2217 45.5918V47.3316ZM33.1783 21.1004C33.1783 19.3606 32.1405 17.6207 29.9351 17.6207C27.7297 17.6207 26.6919 19.3606 26.6919 21.1004C26.6919 23.3755 28.2486 24.7139 29.9351 29.5319C31.7513 24.7139 33.1783 23.3755 33.1783 21.1004ZM29.9351 19.7621C30.7135 19.7621 31.2324 20.5651 31.2324 21.5019C31.2324 22.3049 30.7135 23.6432 29.9351 25.5169C29.1567 23.6432 28.6378 22.3049 28.6378 21.5019C28.6378 20.4312 29.1567 19.7621 29.9351 19.7621ZM43.2971 39.9708C47.0593 36.3573 49.7836 33.8145 49.7836 28.8627C49.7836 25.1154 47.4485 22.0372 42.908 22.0372C35.9026 22.0372 30.8432 29.2642 30.8432 37.0265C34.6053 37.1603 40.4431 38.3648 43.2971 39.9708ZM42.6485 24.0447C45.6323 24.0447 47.7079 26.186 47.7079 28.9965C47.7079 32.7438 46.0214 35.019 42.6485 38.0972C39.7945 36.8927 35.6431 35.9558 32.5297 35.6882C33.308 28.8627 37.4594 24.0447 42.6485 24.0447Z" fill="#181818"/>
<path fill-rule="evenodd" clip-rule="evenodd" d="M23.7746 8.10448H26.8881V5.16016H32.9822V8.23831H35.9659V14.2888H33.4372C35.1852 15.241 36.5128 16.9583 36.8931 19.2953C38.6587 18.362 40.6382 17.8743 42.7783 17.8743C49.6726 17.8743 53.8685 23.0484 53.8685 28.3272C53.8685 35.3963 49.4093 39.2266 46.9114 41.3723C46.7082 41.5468 46.518 41.7102 46.3442 41.8633C46.3447 42.707 46.3761 43.9448 46.4086 45.1985L46.411 45.293C46.4424 46.5063 46.474 47.7277 46.474 48.536C46.474 49.9442 45.6329 51.0105 44.6754 51.7414C43.7136 52.4754 42.4284 53.043 40.9988 53.481C38.1212 54.3626 34.2525 54.8402 30.0649 54.8402C25.8147 54.8402 21.9441 54.363 19.0797 53.4801C17.6563 53.0414 16.3809 52.4724 15.4277 51.7348C14.4747 50.9975 13.6558 49.9317 13.6558 48.536C13.6558 47.6448 13.6887 46.3908 13.7207 45.1682L13.7212 45.1478C13.7532 43.9264 13.7842 42.7375 13.7855 41.8965C13.7505 41.8689 13.7153 41.8411 13.6798 41.8131C10.8043 39.5459 6.13153 35.8615 6.13153 28.1934C6.13153 22.8833 10.3585 17.8743 17.2217 17.8743C19.3522 17.8743 21.2559 18.3571 22.984 19.2608C23.1964 18.0076 23.6901 16.9252 24.4101 16.0339C25.0103 15.2908 25.7386 14.7162 26.5271 14.2888H23.7746V8.10448ZM28.5081 15.2116C26.4265 15.8433 24.6915 17.4288 24.5034 20.1934C24.4923 20.3577 24.4865 20.5261 24.4865 20.6988C24.4865 21.3679 24.6163 22.0371 24.8757 22.5724C24.2334 21.9877 23.569 21.4825 22.8762 21.06C21.1904 20.0321 19.3364 19.4943 17.2217 19.4943C11.2542 19.4943 7.75153 23.7769 7.75153 28.1934C7.75153 35.0626 11.8536 38.3045 14.7106 40.5624C14.743 40.588 14.7753 40.6136 14.8075 40.639C14.9226 40.73 15.0356 40.8195 15.1461 40.9075C15.2335 40.9978 15.2915 41.0728 15.33 41.1531C15.4055 41.3111 15.4055 41.4895 15.4055 41.8444C15.4055 42.7143 15.3731 43.9522 15.3407 45.1902C15.3082 46.4281 15.2758 47.6661 15.2758 48.536C15.2758 51.3465 21.7622 53.2202 30.0649 53.2202C36.7997 53.2202 42.4774 51.9479 44.267 49.9275C44.2675 49.9269 44.268 49.9263 44.2686 49.9257C44.6497 49.4948 44.854 49.0299 44.854 48.536C44.854 47.7491 44.8228 46.5444 44.791 45.3157C44.758 44.0367 44.7242 42.7317 44.7242 41.8444C44.7242 41.4429 44.7242 41.1752 44.9837 40.9075C45.2523 40.6613 45.5552 40.399 45.8809 40.117C48.3876 37.947 52.2485 34.6046 52.2485 28.3272C52.2485 23.9108 48.7458 19.4943 42.7783 19.4943C40.6321 19.4943 38.6872 20.0482 36.992 21.1064C36.3304 21.5193 35.7069 22.0089 35.1243 22.5724C35.254 22.0371 35.3838 21.3679 35.3838 20.6988C35.3838 20.5459 35.3793 20.396 35.3705 20.2491C35.2024 17.4378 33.458 15.7204 31.3622 15.2116V12.6688H34.3459V9.85831H31.3622V6.78016H28.5081V9.72448H25.3946V12.6688H28.5081V15.2116ZM16.5806 40.1003C16.6684 40.051 16.7591 40.0019 16.8524 39.9532C17.1477 39.7988 17.4696 39.6473 17.8136 39.4996C20.4385 38.3726 24.3465 37.4689 27.4727 37.2252C28.0183 37.1826 28.5401 37.1602 29.0271 37.1602C29.0271 36.6354 29.0045 36.113 28.9603 35.5951C28.9587 35.5769 28.9571 35.5586 28.9555 35.5404C28.3261 28.4216 23.5979 22.1709 16.9623 22.1709C12.4218 22.1709 10.0866 25.3829 10.0866 28.9964C10.0866 33.7406 12.4446 36.0523 15.6018 39.1475C15.6959 39.2398 15.7908 39.3328 15.8863 39.4266C15.9681 39.5069 16.0504 39.5878 16.1332 39.6693C16.181 39.7164 16.229 39.7637 16.2771 39.8112C16.3751 39.908 16.4738 40.0058 16.5731 40.1045C16.5756 40.1031 16.5781 40.1017 16.5806 40.1003ZM17.1427 38.0248C17.1689 38.0488 17.1953 38.0729 17.2217 38.097C19.6548 37.0702 23.0306 36.2379 25.9026 35.8489C26.3995 35.7816 26.8813 35.7275 27.3406 35.6881C27.3377 35.6624 27.3348 35.6368 27.3318 35.6113C27.2715 35.0886 27.1927 34.579 27.0965 34.0833C25.919 28.0182 22.1206 24.0446 17.2217 24.0446C14.3677 24.0446 12.1623 26.1859 12.1623 28.9964C12.1623 32.7143 13.8224 34.9831 17.1427 38.0248ZM41.363 41.258C38.7562 40.2065 34.9997 39.4354 29.9352 39.4354C25.0323 39.4354 21.3553 40.1581 18.7605 41.1582C18.197 41.3754 17.6846 41.6056 17.2217 41.8444V43.5842C17.4238 43.4539 17.659 43.3275 17.9237 43.2053C18.1992 43.0781 18.5066 42.9557 18.8417 42.8384C18.9888 42.7869 19.1412 42.7365 19.2986 42.6871C21.9788 41.8458 26.1056 41.309 29.9352 41.309C33.9006 41.309 38.1051 41.8845 40.7997 42.7778C40.8773 42.8035 40.9536 42.8294 41.0286 42.8556C41.3589 42.9711 41.6641 43.0916 41.9408 43.2165C42.2035 43.3352 42.4405 43.4579 42.6486 43.5842V41.8444C42.256 41.6419 41.8278 41.4455 41.363 41.258ZM40.6719 44.7602C38.1069 43.8813 34.5685 43.3165 29.9352 43.3165C24.9589 43.3165 21.2456 43.968 18.6448 44.9604C18.1267 45.1581 17.6527 45.3694 17.2217 45.5917V47.3315C17.4242 47.201 17.6599 47.0756 17.9252 46.9555C18.2003 46.831 18.5072 46.7122 18.8417 46.5995C18.9508 46.5627 19.0629 46.5265 19.1777 46.4911C21.8536 45.6643 26.0476 45.1902 29.9352 45.1902C33.6194 45.1902 37.5099 45.616 40.2043 46.3125C40.4934 46.3873 40.7687 46.4651 41.0286 46.5459C41.3753 46.6537 41.6944 46.7667 41.9817 46.8845C42.2282 46.9855 42.4514 47.09 42.6486 47.1977V45.5917C42.0685 45.2925 41.4106 45.0133 40.6719 44.7602ZM31.7442 25.378C31.798 25.2674 31.8507 25.1596 31.9021 25.0543C32.682 23.4581 33.1784 22.4421 33.1784 21.1003C33.1784 19.3604 32.1405 17.6206 29.9352 17.6206C27.7298 17.6206 26.6919 19.3604 26.6919 21.1003C26.6919 22.361 27.1699 23.3341 27.8832 24.771C27.8889 24.7826 27.8947 24.7942 27.9005 24.8059C28.095 25.1977 28.3067 25.6242 28.5307 26.1002C28.7058 26.4723 28.8884 26.8746 29.0762 27.3144C29.3536 27.9641 29.6424 28.6955 29.9352 29.5317C30.2485 28.7005 30.5503 27.9728 30.8351 27.326C31.0274 26.8895 31.212 26.4898 31.3872 26.12C31.511 25.8585 31.6302 25.6121 31.7442 25.378ZM29.9874 25.3909C30.0842 25.1573 30.1767 24.9323 30.2646 24.7159C30.4713 24.2063 30.6516 23.744 30.7989 23.329C31.0732 22.5556 31.2324 21.9466 31.2324 21.5018C31.2324 20.5649 30.7135 19.7619 29.9352 19.7619C29.1568 19.7619 28.6379 20.4311 28.6379 21.5018C28.6379 21.9466 28.7971 22.5556 29.0714 23.329C29.1584 23.574 29.2568 23.8354 29.3654 24.1134C29.5261 24.5245 29.709 24.9717 29.9095 25.455C29.918 25.4755 29.9266 25.4961 29.9352 25.5168C29.9527 25.4745 29.9701 25.4326 29.9874 25.3909ZM30.8835 35.8258C30.8568 36.224 30.8433 36.6245 30.8433 37.0264C31.3326 37.0438 31.8571 37.0793 32.4056 37.1315C35.5488 37.4305 39.4797 38.276 42.1025 39.3909C42.4655 39.5452 42.8034 39.7047 43.1107 39.8685C43.1742 39.9024 43.2364 39.9365 43.2972 39.9707C43.3519 39.9182 43.4064 39.8659 43.4607 39.8138C47.138 36.2828 49.7837 33.7424 49.7837 28.8626C49.7837 25.1153 47.4485 22.0371 42.908 22.0371C36.3926 22.0371 31.5604 28.2886 30.9164 35.408C30.906 35.5227 30.8967 35.6377 30.8886 35.7529C30.8868 35.7772 30.8851 35.8015 30.8835 35.8258ZM32.5499 35.5179C32.5429 35.5745 32.5362 35.6312 32.5297 35.6881C33.0303 35.7311 33.5578 35.7914 34.1023 35.8674C36.9446 36.2639 40.2534 37.0862 42.6486 38.097C42.7072 38.0436 42.7653 37.9903 42.8229 37.9373C46.0796 34.9394 47.708 32.6786 47.708 28.9964C47.708 26.1859 45.6323 24.0446 42.6486 24.0446C37.8761 24.0446 33.9816 28.1198 32.7813 34.0839C32.6874 34.5507 32.6099 35.029 32.5499 35.5179Z" fill="#BDA581"/>
</svg>
