<svg width="60" height="60" viewBox="0 0 60 60" fill="none" xmlns="http://www.w3.org/2000/svg">
<path d="M30.4164 9C32.0822 9 33.3909 10.6517 33.3909 11.9494C33.3909 13.3652 32.3201 14.427 31.0113 14.8989C31.7252 15.8427 33.3909 16.5506 35.1756 17.6124C39.221 19.8539 42.5524 22.3315 42.5524 26.5787C42.5524 30.3539 41.2436 31.8876 39.8159 33.1854C39.221 33.7753 39.5779 37.4326 39.5779 40.264C39.5779 41.7978 36.6034 42.6236 33.272 42.9775C33.6289 43.6854 34.3428 44.2753 35.7705 44.2753C37.4363 44.2753 40.4108 44.1573 43.3853 44.1573C48.3824 44.1573 51 46.8708 51 46.8708L48.2635 51C48.2635 51 45.17 48.5225 37.6742 48.5225C33.5099 48.5225 30.5354 46.6348 30.0595 45.1011C29.7025 46.6348 27.3229 48.5225 22.5637 48.5225C15.7819 48.5225 11.7365 51 11.7365 51L9 46.8708C9 46.8708 11.6175 44.1573 16.2578 44.1573C19.7082 44.1573 22.5637 44.2753 24.3484 44.2753C25.7762 44.2753 26.4901 43.5674 26.847 42.9775C23.3966 42.6236 20.5411 41.7978 20.5411 40.264C20.5411 37.9045 20.898 34.0112 20.1841 33.3034C19.1133 32.2416 17.4476 30.7079 17.4476 26.6966C17.4476 21.3876 22.3258 19.1461 25.4193 17.2584C26.728 16.5506 28.1558 15.8427 28.8697 15.0169C27.6799 14.5449 26.728 13.4831 26.728 12.3034C26.966 10.7697 28.6317 9 30.4164 9Z" fill="#F9F1E4"/>
<path d="M30.3363 8C32.3543 8 34.2378 9.88379 34.2378 11.633C34.2378 12.9786 33.2961 14.1896 32.0853 14.8624C32.4889 15.5352 33.8342 16.3425 35.045 17.0153C38.6774 19.0336 42.9824 21.3211 42.9824 26.8379C42.9824 31.1437 41.099 32.4893 40.1573 33.5657C39.6191 34.2385 39.8882 38.4098 39.8882 40.4281C39.8882 41.7737 37.4666 42.8502 33.9687 43.3884C34.5069 43.792 35.1795 43.792 35.9867 43.792C37.7357 43.792 39.4846 42.581 42.9824 42.7156C48.4983 42.7156 51.3235 45.5413 52.2653 46.3486L48.4983 52C47.4221 51.3272 43.6551 49.1743 38.6774 49.1743C34.2378 49.1743 31.009 48.5015 29.9327 46.8868C28.8565 48.5015 25.6277 49.1743 21.1881 49.1743C16.3449 49.1743 12.5779 51.3272 11.5017 52L7.73474 46.3486C8.67647 45.5413 11.5017 42.7156 17.0175 42.7156C20.5154 42.7156 22.2643 43.792 23.8787 43.792C24.6859 43.792 25.3586 43.792 25.8967 43.3884C22.1298 42.9847 20.1118 41.7737 20.1118 40.4281C20.1118 38.4098 20.5154 34.2385 19.8427 33.5657C18.7665 32.4893 17.0175 31.1437 17.0175 26.8379C17.0175 21.3211 21.3226 19.1682 24.955 17.0153C26.1658 16.3425 27.7802 15.4006 27.9147 14.8624C26.8385 14.1896 26.1658 13.1131 26.1658 11.9021C26.0313 9.88379 28.1838 8 30.3363 8ZM38.2738 46.8868C42.8479 46.8868 46.0767 48.2324 47.6911 48.9052L49.171 46.4832C48.0947 45.6758 45.8077 44.4648 42.8479 44.4648C39.7537 44.4648 37.7357 45.1376 35.9867 45.1376C33.6997 45.1376 32.3543 44.4648 31.6817 43.3884C31.009 43.3884 30.4709 43.3884 29.7982 43.3884C29.1255 43.3884 28.5874 43.3884 28.0493 43.3884C27.3766 44.4648 25.8967 45.1376 23.4751 45.1376C21.8607 45.1376 19.9773 44.4648 16.7485 44.4648C13.6542 44.4648 11.5017 45.6758 10.2909 46.4832L11.9053 48.9052C13.3851 48.0979 16.6139 46.8868 21.1881 46.8868C25.0895 46.8868 28.3183 46.4832 29.5291 44.8685H29.9327C31.2781 46.6177 34.1033 46.8868 38.2738 46.8868ZM21.5917 34.3731C23.4751 33.2966 26.5694 32.7584 29.7982 32.7584C33.1615 32.7584 35.9867 33.4312 38.0047 34.3731C38.0047 33.5657 38.2738 32.7584 38.4083 32.4893C39.2155 31.4128 40.6954 30.2018 40.6954 26.8379C40.6954 22.263 36.2558 19.9755 33.6997 18.3609C32.3543 17.419 29.9327 16.0734 29.7982 15.5352C29.6637 16.0734 27.3766 17.419 25.8967 18.3609C23.3406 19.9755 18.901 22.1284 18.901 26.8379C18.901 30.2018 20.3809 31.5474 21.1881 32.4893C21.4571 32.7584 21.5917 33.4312 21.5917 34.3731ZM21.7262 36.1223C21.7262 36.7951 21.7262 37.6024 21.7262 38.2752C23.0715 37.3333 26.0313 36.6605 29.7982 36.6605C33.5651 36.6605 36.3903 37.3333 37.8702 38.1407C37.8702 37.4679 37.8702 36.7951 37.8702 36.1223C35.5831 35.0459 33.027 34.7768 29.7982 34.7768C26.4349 34.7768 23.8787 35.1804 21.7262 36.1223ZM29.9327 41.9083C32.0853 41.9083 38.0047 41.6391 38.0047 40.2936C38.0047 39.2171 33.8342 38.6789 29.9327 38.6789C26.3003 38.6789 21.8607 39.3517 21.8607 40.2936C21.7262 41.6391 27.1075 41.9083 29.9327 41.9083ZM28.5874 26.2997H25.3586V23.8777H28.5874V20.7829H31.1435V23.8777H34.3723V26.2997H31.1435V29.5291H28.5874V26.2997ZM29.9327 13.5168C30.8745 13.5168 31.9507 12.7095 31.9507 11.633C31.9507 10.9602 31.2781 9.88379 30.3363 9.88379C29.2601 9.88379 28.3183 10.9602 28.3183 11.9021C28.3183 12.5749 29.1255 13.5168 29.9327 13.5168Z" fill="#332007"/>
</svg>
