<svg width="60" height="60" viewBox="0 0 60 60" fill="none" xmlns="http://www.w3.org/2000/svg">
<path d="M25.8601 11.4358H29.3955V8.7998H31.2245V11.5557H33.9067V13.0719H31.2245V17.5203C33.207 17.9996 34.8396 19.1412 34.8396 21.8971C34.8396 22.4962 34.1506 23.9706 34.034 24.4499C35.8999 22.6526 38.8894 21.5626 41.5716 21.5626C46.936 21.5626 50 24.7728 50 28.7268C50 35.0773 45.5685 38.0728 43.4694 39.9899C43.2362 40.2295 43.2362 40.4692 43.2362 40.8286C43.2362 42.3863 43.3528 45.3818 43.3528 46.8196C43.3528 49.3358 37.3222 50.4358 29.9753 50.4358C22.5117 50.4358 16.7638 49.3358 16.7638 46.8196C16.7638 45.262 16.8805 42.3863 16.8805 40.8286C16.8805 40.3493 16.8805 40.2295 16.6472 39.9899C14.0816 37.9529 10 35.0773 10 28.607C10 24.6529 13.0146 21.5626 18.379 21.5626C21.0612 21.5626 23.8776 23.2301 25.8601 25.0274C25.7115 24.8943 25.5 22.1617 25.5 21.5626C25.5 18.8067 27.413 18.1194 29.3955 17.5203V13.0719H25.8601V11.4358Z" fill="#F9F1E4"/>
<path d="M30.1551 51C21.966 51 16.0972 49.2254 16.0972 46.6317C16.0972 45.1302 16.2337 42.2635 16.2337 41.1714C16.2337 40.3524 16.2337 39.9429 15.9607 39.6698C13.231 36.9397 9 34.073 9 28.0667C9 23.2889 12.958 19.8762 17.8715 19.8762C21.693 19.8762 24.0133 21.5143 25.3781 22.8794C25.2416 22.4698 24.9687 21.7873 24.9687 21.1048C24.9687 18.6476 26.3335 16.4635 28.7902 16.054V13.4603H25.7876V10.7302H28.7902V8H31.5199V10.8667H34.3861V13.5968H31.5199V16.054C33.9766 16.6 35.3415 18.7841 35.3415 21.1048C35.3415 21.7873 35.205 22.4698 34.932 22.8794C36.2968 21.7873 38.7536 20.0127 42.4386 20.0127C47.3521 20.0127 51.3101 23.5619 51.3101 28.2032C51.3101 34.4825 47.2156 37.3492 44.3494 39.9429C43.94 40.3524 44.0764 40.7619 44.0764 41.4444C44.0764 42.673 44.2129 45.5397 44.2129 47.0413C44.3494 48.9524 39.2995 51 30.1551 51ZM16.2337 37.7587C18.5539 36.2571 24.1497 34.619 29.3361 34.4825C28.9267 27.2476 24.1497 22.3333 17.8715 22.3333C13.6405 22.3333 11.1837 25.2 11.1837 28.6127C11.1837 32.5714 13.9134 35.4381 16.2337 37.7587ZM42.1657 40.2159C42.3021 39.6698 42.5751 39.2603 42.8481 38.9873C40.5279 37.7587 35.0685 36.5302 30.1551 36.5302C25.2416 36.5302 19.7823 37.7587 17.462 38.9873C17.735 39.2603 18.008 39.6698 18.1444 40.0794C20.6012 38.8508 24.5592 38.0317 30.1551 38.0317C35.8874 38.0317 39.8454 38.9873 42.1657 40.2159ZM42.0292 43.6286C42.0292 43.0825 42.0292 42.5365 42.0292 42.127C39.8454 41.0349 34.7955 40.2159 30.2915 40.2159C25.6511 40.2159 20.7376 41.0349 18.5539 42.127C18.5539 42.673 18.5539 43.0825 18.4174 43.6286C20.6012 42.5365 24.9687 41.854 30.2915 41.854C35.7509 41.854 39.5725 42.673 42.0292 43.6286ZM18.8269 47.0413C20.6012 48.2698 25.7876 48.8159 30.1551 48.8159C34.2496 48.8159 39.2995 48.2698 41.2103 47.1778C41.6197 46.9048 41.8927 46.6317 41.8927 46.2222C41.8927 45.6762 40.9373 45.2667 40.2549 45.1302C37.7982 44.4476 33.4307 43.9016 30.1551 43.9016C25.924 43.9016 19.9187 44.5841 18.5539 45.6762C18.4174 45.8127 18.2809 46.0857 18.2809 46.2222C18.2809 46.6317 18.5539 46.7683 18.8269 47.0413ZM33.2942 21.3778C33.2942 19.7397 32.3388 18.1016 30.1551 18.1016C27.9713 18.1016 27.0159 19.7397 27.0159 21.3778C27.0159 23.4254 28.3808 24.654 30.1551 29.1587C31.9293 24.654 33.2942 23.4254 33.2942 21.3778ZM31.1104 34.4825C36.4333 34.619 41.8927 36.2571 44.0764 37.7587C46.3967 35.4381 49.1264 32.7079 49.1264 28.4762C49.1264 25.3365 46.6696 22.1968 42.4386 22.1968C36.2968 22.3333 31.5199 27.2476 31.1104 34.4825Z" fill="#332007"/>
</svg>
